<svg version="1.2" xmlns="http://www.w3.org/2000/svg" viewBox="0 0 746 497" width="1200" height="799"><defs><linearGradient id="P" gradientUnits="userSpaceOnUse"/><linearGradient id="g1" x2="1" href="#P" gradientTransform="matrix(794.002,502.002,-458.644,725.424,204.282,-212.436)"><stop stop-color="#341463"/><stop offset=".61" stop-color="#d50063"/><stop offset=".96" stop-color="#f9d85e"/><stop offset="1" stop-color="#ffff5d"/></linearGradient><clipPath clipPathUnits="userSpaceOnUse" id="cp1"><path d="m-3.53-1.33h750v499.66h-750z"/></clipPath><linearGradient id="g2" x2="1" href="#P" gradientTransform="matrix(951.98,-104.05,51.18,468.262,-110.435,86.225)"><stop stop-color="#341463"/><stop offset=".61" stop-color="#d50063"/><stop offset=".96" stop-color="#f9d85e"/><stop offset="1" stop-color="#ffff5d"/></linearGradient><linearGradient id="g3" x2="1" href="#P" gradientTransform="matrix(-381.996,581.14,-806.367,-530.043,694.204,82.701)"><stop stop-color="#341463"/><stop offset=".61" stop-color="#d50063"/><stop offset="1" stop-color="#ffc17c"/></linearGradient><linearGradient id="g4" x2="1" href="#P" gradientTransform="matrix(-156.013,-31.797,18.793,-92.211,370.181,206.597)"><stop stop-color="#341463"/><stop offset=".61" stop-color="#d50063"/><stop offset="1" stop-color="#ffc17c"/></linearGradient><linearGradient id="g5" x2="1" href="#P" gradientTransform="matrix(-154.819,24.994,-14.16,-87.71,545.274,373.043)"><stop stop-color="#341463"/><stop offset=".61" stop-color="#d50063"/><stop offset="1" stop-color="#ffc17c"/></linearGradient></defs><style>.a{fill:#fff}.b{fill:url(#g1)}.c{fill:url(#g2)}.d{fill:url(#g3)}.e{opacity:.3;mix-blend-mode:overlay;fill:#ff80ab}.f{opacity:.3;mix-blend-mode:overlay;fill:#fff9c4}.g{fill:url(#g4)}.h{fill:url(#g5)}</style><path class="a" d="m-3.5-1.3h750v499.6h-750z"/><path class="b" d="m-3.5-1.3h750v499.6h-750z"/><g clip-path="url(#cp1)"><path class="c" d="m-3.5 124.6c0 0 70.1-90.5 233.5 36 257 198.8 219-212.9 516.5-93.7v118.6c0 0-80.8-70.3-168.8-8-100.1 70.9-149.8 398.2-321.7 194.9-191-225.8-259.5-155.8-259.5-155.8z"/><path class="d" d="m-3.5 145.6c0 0 82.5-67.1 158.5 4 76.4 71.4 227.4 207.7 366 52.9 128-142.9 225.5-39.9 225.5-39.9v226.8c0 0-126.5 31-188.5-68.9-62-100-213.7-22.5-229 61.9-15.4 84.4-184 129.9-212-50-28-179.8-120.5-140.9-120.5-140.9z"/><path class="e" d="m-3.5 178.1c0 0 95.8-40.1 180.5 61.4 160 191.9 265.6 37.7 223.3-88.4-34-101.4 32-152.4 32-152.4h314.2v258.9c-27-39-106.5-81.1-228.5-9.1-121.8 71.9-116.5 214.4-321 73-101.3-70.1-200.5 141.4-200.5 141.4z"/><path class="f" d="m-3.5 169.6c0 0 61-46.5 167.5 34.4 106.5 81 210.1 97.8 306-30 84-111.8 200.7-121.9 276.5-64.9v217.9c0 0-131-121.5-237.5-9-106.5 112.4-220 67.9-317.5-34.5-97.4-102.5-195-36.2-195-36.2z"/><path class="e" d="m475.7-1.3c-84.9 27.9-82.9 196.6-15.4 118.2 68-79 130-84.6 286.7 7.7l-0.5-125.9z"/><path class="g" d="m295.2 184.1c24.8 11.3 80 26.8 91.3-19.5 5.5-22.5-16.6-50.7-42-55.5-24-4.5-55.8 34.2-80.5 11-29.5-27.8-28 37 31.2 64z"/><path class="h" d="m458.1 306.5c12.1 2.7 28.9 6.9 46.2 18.6 25.9 17.5 24.7 40.3 6.7 40.3-12.7 0-28.4-19.8-83.8-0.3-21.9 7.6-39.8-15.5-31.2-36.3 7-17 33.7-28.7 62.1-22.3z"/></g></svg>