<svg version="1.2" xmlns="http://www.w3.org/2000/svg" viewBox="0 0 1500 1000" width="1500" height="1000"><style>.a{fill:#f0f7fa}.b{fill:#fff}.c{fill:#d2e7f1}.d{fill:#a7c7d5}.e{fill:#e0a680}.f{fill:#3d1f11}.g{fill:#ca7d4a}.h{fill:#68af9b}.i{fill:#5b9b90}.j{fill:#c7dfd8}.k{fill:#5f3324}.l{fill:#c4e1f4}.m{fill:#6d4131}.n{fill:#a15c47}.o{fill:#497d98}.p{fill:#3c6982}.q{fill:#cee2f6}.r{fill:#ebebeb}.s{fill:#20201e}.t{fill:#e4eef6}.u{fill:#c6323e}</style><path class="a" d="m0 1000h1500v-1000h-1500z"/><path class="b" d="m37.7 0v1000h-2.2v-1000z"/><path class="b" d="m1000 37.7h-1000v-2.2h1000z"/><path class="b" d="m99.4 0v1000h-2.1v-1000z"/><path class="b" d="m1000 99.5h-1000v-2.2h1000z"/><path class="b" d="m161.2 0v1000h-2.1v-1000z"/><path class="b" d="m1000 161.2h-1000v-2.1h1000z"/><path class="b" d="m223 0v1000h-2.2v-1000z"/><path class="b" d="m1000 223h-1000v-2.2h1000z"/><path class="b" d="m284.8 0v1000h-2.2v-1000z"/><path class="b" d="m1000 284.8h-1000v-2.2h1000z"/><path class="b" d="m346.6 0v1000h-2.2v-1000z"/><path class="b" d="m1000 346.6h-1000v-2.2h1000z"/><path class="b" d="m408.4 0v1000h-2.2v-1000z"/><path class="b" d="m1000 408.4h-1000v-2.2h1000z"/><path class="b" d="m470.2 0v1000h-2.2v-1000z"/><path class="b" d="m1000 470.2h-1000v-2.2h1000z"/><path class="b" d="m532 0v1000h-2.2v-1000z"/><path class="b" d="m1000 532h-1000v-2.2h1000z"/><path class="b" d="m593.8 0v1000h-2.2v-1000z"/><path class="b" d="m1000 593.8h-1000v-2.2h1000z"/><path class="b" d="m655.6 0v1000h-2.2v-1000z"/><path class="b" d="m1000 655.6h-1000v-2.2h1000z"/><path class="b" d="m717.4 0v1000h-2.2v-1000z"/><path class="b" d="m1000 717.4h-1000v-2.2h1000z"/><path class="b" d="m779.2 0v1000h-2.2v-1000z"/><path class="b" d="m1000 779.2h-1000v-2.2h1000z"/><path class="b" d="m840.9 0v1000h-2.1v-1000z"/><path class="b" d="m1000 840.9h-1000v-2.1h1000z"/><path class="b" d="m902.7 0v1000h-2.2v-1000z"/><path class="b" d="m1000 902.7h-1000v-2.2h1000z"/><path class="b" d="m964.5 0v1000h-2.2v-1000z"/><path class="b" d="m1000 964.5h-1000v-2.2h1000z"/><path class="b" d="m987.3 37.7h512.7v-2.2h-512.7z"/><path class="b" d="m987.3 99.5h512.7v-2.2h-512.7z"/><path class="b" d="m987.3 161.2h512.7v-2.1h-512.7z"/><path class="b" d="m987.3 223h512.7v-2.2h-512.7z"/><path class="b" d="m987.3 284.8h512.7v-2.2h-512.7z"/><path class="b" d="m987.3 346.6h512.7v-2.2h-512.7z"/><path class="b" d="m987.3 408.4h512.7v-2.2h-512.7z"/><path class="b" d="m987.3 470.2h512.7v-2.2h-512.7z"/><path class="b" d="m1455.3 0v1000h2.2v-1000z"/><path class="b" d="m987.3 532h512.7v-2.2h-512.7z"/><path class="b" d="m1393.5 0v1000h2.2v-1000z"/><path class="b" d="m987.3 593.8h512.7v-2.2h-512.7z"/><path class="b" d="m1331.7 0v1000h2.2v-1000z"/><path class="b" d="m987.3 655.6h512.7v-2.2h-512.7z"/><path class="b" d="m1269.9 0v1000h2.2v-1000z"/><path class="b" d="m987.3 717.4h512.7v-2.2h-512.7z"/><path class="b" d="m1208.1 0v1000h2.2v-1000z"/><path class="b" d="m987.3 779.2h512.7v-2.2h-512.7z"/><path class="b" d="m1146.3 0v1000h2.2v-1000z"/><path class="b" d="m987.3 840.9h512.7v-2.1h-512.7z"/><path class="b" d="m1084.5 0v1000h2.2v-1000z"/><path class="b" d="m987.3 902.7h512.7v-2.1h-512.7z"/><path class="b" d="m1022.8 0v1000h2.1v-1000z"/><path class="b" d="m987.3 964.5h512.7v-2.2h-512.7z"/><path fill-rule="evenodd" class="c" d="m1361.2 227.5c-2 3.3-2.9 3.8-4.8 8-3.6 7.7-7.7 13.7-8.3 0.9-0.4-10.6-3.7-8.3 3-18.3 3.9-5 16.8-12.5 16.7-17.5 0-3.8-6.2-0.2-8.5 0.2-9.2 1.9-8.2-1-14.2 8.4-3.3 5.4-3.1 4.6-9.5 1.6-4.8-2.2-9.1-0.9-14.2-2.1-6.1-1.3-7.7-0.9-11.3 4.7-5.1 8.1-3.6 5.6-11.1 10.4-4.9 3.3-5 6.6-0.5 10.6 4.6 4.1 14.3 0.4 10.8 13-1.5 5.5-12.7 27.4-19.9 26.3-7.4-1.2-6.5-0.5-8.3 6.7-0.5 2.3-1.7 4.8-2.4 7.2-1 3.5 1.9 12.6-1.5 14.3-3.9 2-7-12.6-10.6-15.1-3.7-2.5-18.1-2.7-14.4 4.2 2.2 4.1 4.2 5.4 3.5 10.4-1.1 7.4 4.6 9.9 4.8 12.3 0.4 3.4-3 17.3-5.8 20.9-1.6 2.2-4 4-6.1 5.7-4.4 3.1-8.9 3.7-13.8 6.8-6.4 3.6-5-2.8-10.7 0.7-6.8 4-3.1 9.7 0.4 14.2 3.2 4.2 4.6 8 4.1 13.4-1.4 6.7-3.2 5.5-7.3 10.7-3.2 4-4-0.3-6.1-3.9-6.4-10.9-12.7-6.5-7.2 6.7 0.8 2 10.2 18.4 5 17.7-3.9-0.5-9.3-19.9-9.8-24.1-0.7-6.9-0.2-8.6-2.6-15.6-4.5-10.2-9.3 7.9-9.8-4.8-0.3-7.4 3-3.7-3-11.8-4-5.6-2.4-11.8-7.8-5.4-3.3 3.8-6.1 1.7-6.7 5-0.4 2.3-2.3 3.6-4 5-4.4 3.2-4.5 3-8.4 7.1-4 4.2-4.8 0.9-5.7 9.4l-0.3 2.8c-0.5 6.3-1.1 8.1 2.4 13.4 3.6 5.7-0.9 11-3.1 2.9-1.6-5.9-0.9-2.8-4.2-2.8-4.1 0.1-6.8-11.4-7.9-14.7-2-6.2-6.1-14.2-5.4-20.2 0.8-6.3 0.7-5-3.6-5.5-7-2.2-3.5-14.5-16.9-14.1-14 0.5-8.5 0.9-21.2-4.4-6.8-2.8-6.1-1.3-12-7-8.4-8-6.8 5-0.1 9.9 6.7 4.9 16.2 1.5 18.9 11.9 2.5 9.8-13.4 20.4-20.7 24.7-5.1 2.9-13.4 7.2-17.6 1.1l-0.5-1.2c-2.2-5.9-1-6.5-4.8-13.1-3.1-5.3-4.2-7.7-6.4-13.1-0.7-1.7-7.6-18.4-10.7-14.3-2 2.8 6.5 20.8 8.1 24.9 1.6 4.3 3.4 3.8 4.3 9.4 0.5 2.8 5.6 7.9 7.6 11.3 4.4 7.7 4.2 8.5 14.5 5.1 8.6-2.8 9.5-1.4 6.5 7.2-3.9 10.7-6.4 14.2-15 21.2-4.1 3.3-5.9 5.4-7.9 10.4-3.1 9.3-8.1 7.8-6.3 18.8 0.8 4.8 1.5 9.6 2.3 14.5 1.4 8.8 1.6 15.7-7.4 19.9-6.7 2.7-9 3-6.7 11.4 1.9 6 3.3 9.3-3.1 12.6-6 3.1 1.2 5.6-4.5 13.1-3 3.8-2.2 3.3-4.2 7-3 5.5-10.3 7.8-16.3 8.2-2.6 0.2-4.7 0.3-7.2 0.6-9.2 1.4-6.2-3.4-8-11.1-2.4-10.2-7.3-7.8-8.1-18.7-0.3-12.2-1.1-13.2-5.2-24.4-4-11.2 2.2-9.1 4.8-17 1.5-4.9-0.6-10-2.4-14.5-4.5-9.9-13.4-16-9.7-28.1 1.1-3.6 6.1-5.8 1.6-8.7-6.7-4.3-9.8 4.2-13.8-2l-0.8-1.4c-2.8-4.5-3.9-4.3-8.9-1.9-6.6 3.4-10.5 4.4-18 4.9-7.2 0.6-12.2-4.1-16-9.8-2.8-4.1-4.6-10-7-14.7-4.2-7.8-2.6-10.6-3.4-18.9-1.2-10.8-0.8-11.8 4.6-21.4 5.3-9.4 11-9 13.5-20.5 2.2-9.9 10.4-9.9 10.2-16-0.2-5.2-8.9-3.4-9.5-14.4-0.7-18.7 2.2-11.2 16.1-14.8 9.4-2.4 0.3-11.2-2.8-14.9 7.7-4.5 9-3.1 16.7-10.1 8.9-8.1 9.9-8.3 21.4-12 8.9-2.8 9-6.3 4.2-14.3-6.5-10.9-8.8-0.5-14.5-4.2-4-2.5-3.8-11.8-0.4-15.6 3.1-3.5 27.1-22.5 21.4-25.7-2.3-1.3-2-2 0.8-3.6 3.6-2.1 7.1-3.1 10.9-5.4 14.2-8.9 11.9-8.3 28.5-2.3 3.2 1.1 35.9 12.9 17 15.4-2.6 0.3-9.6 0.9-11.6 1.9-0.1 2.9 7.1 9.6 9.5 11.4 3.3 1.7 6-3.2 8.4-5.5 4.3-4 6.2-3.5 10-8.7 3.6-4.8 3.9 0.7 12.5-1.7 7-2 6.4-2.7 14.5-2.9 5.3 0 12.3 0.3 15.9-4.3 2.2-2.9 3.5-2.1 7.2-0.6 9.4 3.8 10.5 6.7 10.5-6 0-5.3 1.3-15.4 8.6-15.3 6.3 0 9.9 11.5 15.1 10.5 2.5-1.2 7.3-6.3 9.1-8.6 1.8-2.5 6.5-2.1 9.6-2.3 12.5-0.8-1-3.2 11.9-8.4 3.8-1.5 16.4-6.1 19.7-3.7 1.8 1.3 1 2.2 4.5 0 6.5-3.9 11.5-10.5 18.4-3.5 2.7 3.2 3.5 0.7 7.8-0.1 3.2-0.7 7.1 1.7 8.5 4.5 3.1 6.1-10.4 10-1.9 12.3 4.7 1.3 7.1-1.3 15.1 2.1 8.7 3.7 4.3 1.6 12.6 2.6 9.7 1.3 14.5 8.3 23.8 7 8.6-1.6 14 4.7 18.2-4.2 2.1-4.5 4.1-4 9-2.2 7.6 2.8 6.4 4.1 16 5 5.2 0.5 10.5 0.5 15.8 0.8 12.2 0.7 7.5 7.8 19.7 7.7 2.4 0 3.7 0.2 6.1 0.7 2.6 0.7 10 5.1 11.2 0.9 0.7-2.6-0.2-4.7 3.9-5.2l2.4-0.1c6.9 0.4 17.1 8.5 23.3 12.4 3.5 2.2 6.1 5.2 10 5.6 2.7 0.2 11.9 4.2 10.2 5.9-0.3 0.3-4.5 2.5-6 3.6-5.9 4.6-6 0.3-12.2-2.6-4.2-2.1-5.2 1.3-9.3 2.6-5.5 1.7-5.3 0.8-2.5 5.1 2.9 4.4-5.6 2.9-9.5 5.3l-3 2c-0.7 0.6-7.4 6.2-7.4 6.2-1.7 0.5-1.5-3.5-7.2-1.4-2.7 1-7.6 1.9-8.9 4-1.4 2-1.1 2.9-3.9 3-3.1 0.1 1.1 3.3-0.1 5.5-1.2 2.1 3.9 2.8-0.3 5.9-1.5 1.2-1.8 1.5-3 3.1zm-282.6-63c1.9 1.6-0.3 4.9-0.4 0.1zm-9.2 300.4c4.9-2.9 7.3-12.3 9.5-9.8 3.2 3.6 0.8 10.3-0.9 14-3.7 8.3-3.1 10.4-4.5 18.9-1.6 9.9-6.3 14.3-10.8 2.2-1.9-5.1-3.1-6.2-0.3-10.6 3.6-5.5 1.3-5.6 2.9-10.8 1.4-2.6 1.7-2.5 4.1-3.9zm214.2-150.9c-1.1 0.6-1.9-5-2-5.4-0.6-4.2 3.5-2.8 4.1 1.8-0.3 1-1 3.1-2.1 3.6zm4.7-6.8c-2.6-7.8 4.1-3.9 7.1-7 2.7-2.8 0.5-2.5 5.3-6.1 2.4-1.9 5.1-5.6 5.4-8.7 0.7-7.2 5.6-6.2 3.7 4.5-0.9 3.6-0.6 5-1.1 8.2-0.3 2.4-4.2 4.7-6.5 4.9-4.4 0.5-3.6 2.8-6.3 2.6-4.7-0.3-4.6 3.3-6.3 3.5-0.8-0.3-1-1.1-1.3-1.9zm-204-153c-3-0.8-0.3-3.2 1.2-5.3 3.3-4.3 5.4-2.3 3.9-5.2-1.7-3.2 3.8-4.8 5.8-5.8 10.3-5.2 9-3.3 19-5.9 3.7-0.9 6.8-3.6 8.1-3.9 1.1-0.2 1.7 0.4 2.6 1-9.8 10-19.7 6.6-26.2 14.6-7.3 8.9 0.1 15.4-0.3 16.2-0.4 0.6-3.8 0.9-4.2 0.9-6.8-0.6-2.4-4.5-9.9-6.6zm-34.6 104.5c-4 1.4-4.7 4.6-10.9 4.3-6-0.3-5.2-6.7-12.2 6.5-4.5 8.6-1.8 12.3 7.6 9.2 9.6-3.3 11.5 3.3 18.9 1.8 6-1.3 4-5.5 0.1-8.9-7.5-6.5-1.6-7-0.5-11.9 0.5-2.1-1.8-1.3-3-1zm-61.4-46.1c1.9-0.5 1.7-4.6-0.3-1.7-0.4 0.6-0.8 1.5 0.3 1.7zm44.5-8.9c3.6 5 5.7-2.4 1-3.3-2.5-0.5-1.6 2-1 3.3zm-33.9 26.4c11.5-4.1 3.8-7.1 14.1-11.5 2.3-0.9 1.5-5.9 11.1-9.9 10.3-4.3-5.5-3.2-8.8-4-14.5-3.5 6.7-22.3-0.3-22.2-3.7 0-7.8 5.9-10.9 8.4-7.4 6.2-7.4 5.6-3.8 14.5 2.4 6-0.7 4.9-3.4 11.1-1.9 4.5-1 3-3.6 6.9-2.7 4-4 8.9 3 7.4zm91.6 64.9c0-3.4-0.5-7-1.3-10.3-1.4-5.5 2.8-3 1.9-4.7-0.1 0-3.8-3.6-4.4-4.3-0.8-0.9-5.6-6.1-4.8-7.3 0.7-1.1 4.1-3.2 6-2.3 2.5 1.1 4.6 1.4 2.5-2.4-1.3-2.5-5.2-5.4-7.9-5.1-1.8 0.2-10.1 5.3-10.4 7.6-0.4 3.4 2.4 9 4.3 11.9 3.7 5.6 0.7 5.9 2.9 12 2.3 6.5 10.6 8.2 11.2 4.9zm-51.6-27.4c-2.6-3.5 7.2-2.6 5.2 0.4-1.6 1-4 1.4-5.2-0.4zm-90.7 26.6c-13 9 8.3 2.8 11.7 2.2 4.5-0.9 19.1-3.7 19.4 4l-0.1 1.3c-0.9 6.3 3.7 4.9 9 8.7 2.9 2.2 13.2 12.9 14.8 4.7 0.9-4.5 1.7-5.7 7.2-4.9 13.5 2.7 10.2 10.1 27.2 4.1 6.1-2.5 8.4-6.9 8-13.6-0.3-6.8-4.5-1.4-10.5-3.9-6.4-2.7-5.2 2.3-9.3 0-4.9-2.6-4.2-20.3-12-13.5-4.1 3.6 1.9 4.7 0.1 8.4l-0.8 1.3c-3.6 4.1-6.9-4.4-8.5-7.2-2.6-6.4 5-3.5-8.3-12.8-2.2-1.6-7.6-7.5-9.1-7.6-3-0.3 2.4 10.3 4.3 12.1 5 4.8 9.2 3.8 4.7 12.6-1.9 3.3-5.2 3.9-8.7 2.8-6.5-2.2 13.8-0.6 1.3-11.8-4.4-4-3.9-4.5-7.2-8.5-3.8-4.6-7.3-0.5-12.9 0-5.2 0.5-6.6 2-10 5.9-8.4 9.6-0.4 8.4-10.3 15.7z"/><path class="c" d="m902 145.2c5.3-6.1-0.2-8.2 1.2-12 3-4.3 7.8-1.2 1.9-8.9-4.2-5.3-0.1-7.1 4.6-10.9 4.1-3.3 5.7-4.2 10.3-6.8 8.3-4.7-7.9-3.8-10.5-3.2-24.5 6.2-7.9-0.4-7.7-4.1 0.2-3.1-5.7-3.7-8.2-4.9-5.3-2.7-13.3-4.5-19.3-4.7-8.5-0.2-15.2 0.4-23.1 3.5-2.1 0.9-15 3.4-14.2 6.1 2.1 4.6 5.6 7.7-2.4 2-7.6-5.2-3.7 1.2-9.7 1.3-6.3 0.2-3.7 0-9.2-1.8-6.4-1.5-19.1 2.5-24.3 6.4-6.4 4.9 5 6-9.1 10.3-5.6 1.6-8.9 2.5-5.3 9.1 4.9 8.9 20.2-0.3 29.5 7.5 3 2.5 9.4 9.5 8.5 13.8-0.3 1.6-2.1 7.5 1.3 6.7 3.7-0.8 10.1-1.2 9.9 4.1-0.5 13.1-9.6 11.6-5.7 22.7 1.4 3.9 5.3 7.6 5.8 9.6 1 4.1 3.4 5.6 5.8 9.3 1.7 2.6 11.1 10.2 13.3 6.3 1.6-2.8 2.4-11.1 5.2-16.5 5.7-10.8 3.5-4.4 13.1-9.6 7-3.7 5.1-7 14.9-9 7.1-1.4 21.4-6.1 21.1-14.8-0.1-5.5-1.6-6.3 2.3-11.5z"/><path class="c" d="m1199.8 405.9c3.8 4.6 3.1 7 4.4 8.8 2.3 3.2 2.4 0.8 4.4 6.7 1.6 4.4 10.1 16.2 11.8 6.7 0.1-0.8 3-10.6-1-6.5-2.8 2.7-3.5-6.7-4.3-7.8-2.3-3.3-4.7-0.6-9.6-9.7-2.3-4.2-6.1-8.1-11.1-8.7-5.2-0.6 4.8 9.9 5.4 10.5z"/><path class="c" d="m897.8 187.4c3.2 4.1 7.8 6.6 12.6 3.2 3.1-2.3 7-2.8 8.5-4.2 2.7-2.5-1.6-6.7-5.1-6.4-2.3 0.2-7.7 0.3-9.4 1.6-3 2.2-1.9 1-4.5-1.6-1.7-1.8-7.2 0.4-2.1 7.4z"/><path fill-rule="evenodd" class="c" d="m720.3 366.5c-3.6-5-8.1-2.9-14.1-3.5-10-1-17.4-5.1-19.3-15.6-1.3-10.2-0.5-5-6.6-13.4-2.4-3.3-10.8-21.1-14.4-20.1-0.4 5.6 10 22.7 8.6 25.4l-0.8-0.6-1.4-1.4c-2.8-3.7-2.2-5.7-5-8.9-3.1-3.6-4.1-7.9-6.5-12.2-2.6-5-2.7-9.5-7.5-12.5-7.1-4.4-9.7-12.2-12.1-20-2-6.7-1.1-12.5-0.9-19.4v-1.7c0.1-8.4-3.1-11.6-7.6-18.2-4.3-6.4-2.7-7.6-9.3-14.4-4.7-4.8-7.4-6.9-11.8-12.4-7.6-9.6-8.7-9.6-20.5-12.8-8.7-2.3-4.1-6.2-18.1-4.1-8.8 1.4-7.3 7.6-11.9 13.1-5.8 7-24.4 17.9-11.1 5.5 11.4-10.6-0.7-7.7-8.8-12.6-4.9-3.6-9.3-8.7-2.5-13 2.2-1.2 13.7-5.5 6.4-6.9l-2.4-0.3c-3-0.2-13.7-0.1-12-5.4 1.8-5.4 18.1 2.3 13-3.5-2-2.2-10.7-5.6-8.9-8.7l0.8-0.9 1.5-0.8c7.1-3 5.5-7.4 15-9.9 3.4-0.9 6-0.7 9.4-0.2 2.8 0.6 5.8 1.5 8.6 2.2 2.5 0.6 4.4 0.9 7 1.2l3.1-0.1c14.3-0.8 18.5 3.4 31 4.8 10.4 1.2 7.5 2.7 16.1-4.5 3.7-3.2 4.7-0.7 9.1 1.5 6.8 3.3 7.3 0 14.9 3.2 3.6 1.5 9.3 3.6 12 6.4 4.3 4.5 9.2-2 12.9 3.3 1.5 2.2 3.1 3.2 3.5-0.2 1.5-12.5 10.1 1.6 21-0.9 5-1.2 3-1.7 7.6-0.1 4.5 1.6 6.7-1.2 7.5-5.4 1.4-7.5-5.8-6.8-2.3-11.9 3.6-3.1 7.4 2 8 5.8 1 6 0.4 3.9 5.3 8.4 6.4 6 7.5 4.9 12-2.4 2.6-4.3 3.3-7.6 7.5-0.5 8.3 14.1-7.4 11.3-9.9 13.4-1.5 1.3-1.3 2.2-3.7 4-4.8 3.6-4.4 3-7 7.9-1.2 2.2-3.9 1.8-6.9 5.2-2.4 2.8-6.9 9-4.2 12.3 0.6 0.7 6.2 5.8 6.9 6.2 3.2 1.7 4.9 1.3 9.1 4.1 3.4 2.2 5.6 3.6 9.3 5.5 8.9 4.5 3.9 7.6 9.3 13.9 4.9 4.8 5.8-4.1 5-7.9-1.1-5.4 1.9-4.2 5-9.6 3.5-7.2-1.7-7.7-3.8-13-1.1-2.8 2.5-1.2 2.4-7l-0.2-2.5c-0.9-5.6 0.1-2 6-3.4l2.1-0.6c2.7-1 1.1-1.5 5.2 1.9 6.8 4.4 6-1 6.5 7.3 0.2 3.1 2.5 5.4 5.3 6.8 7.7 3.6 5.4-16.3 9.9-3.5 2.7 6.4 5.8 6 4.6 13.1-0.6 3.1 3.2 3.1 6.3 5.1 5.8 3.7 3.4 1.6 7.7 7.3 2.7 3.6-3 3.2-6.9 6.8-8.2 6.6-10-0.5-17.2 2.9-2.7 1.3-6.5 4.3-6.6 7.5 4.9 0.3 9-1.9 9.6 5.4-0.7 8-6.8 9.1-12.4 14.2-4.2 3.9-15.8 13.4-17.1 18.5-1.8 7.4 0.9 8.7-5.6 16.1-7.8 8.9-8.1 8.6-4.6 19.8 2 6.5 0.1 7.7-3 1.6-3.2-6.1-7.6-11.1-15.2-10.6-4.7 0.3-2.7 2.8-11.7 1.6-4.7-1.2-8.8 0.8-12.2 4.1-3.6 3.4-3.1 9-3.6 13.7-0.8 6.8 2.6 18.5 9.9 21 9.3 2.2 7.9-8.8 13.2-9.6 4.4-0.8 4.5 5.4 3.5 8.5-0.9 3-4.5 10.9 2.1 9.5 4.4-1 6.7-1.6 7.9 4.3 1.8 9-1.3 11.6 9.3 15.1l1.8 0.6c14.8 4.8 5.4-4.8 17.8-6.8 7.5-0.6 10.4 4.8 22.1 3 4.5-0.7 4.6 1.4 7.6 4.9 10.8 11.8 16.5 5.8 21.2 10.7 5.8 6.1 1.9 16.5 11.5 19.1 5.9 1.6 8.3 0.5 12.7 5.2 1.8 2 4.4 1.8 7.4 3.3 6.6 3.2 14.7 8 12.8 16.6-1.1 5.2-11.5 9.3-11.8 20.7-0.2 7.5 8.3 8.2-3.8 19.3-9.9 8.6-11.8 5.1-18.7 19.8-5.1 10.8-10.5 28.9-25.4 27.9 0.5 0.8 3.5 4.7 3.3 5.4-4.4 8.8-10.8 2.9-14.4 5.9-2.8 2.3 1 6.2-2.2 9.8-5.7 6.5-2.2 5.7-4 9.7-2.6 5.9-9.6 0.6-6.9 12.3 2.2 9.6-2.6 11.3-1.4 17.4 1.1 5.2 6.7 8.8 6.6 10.9-2.2 1.3-8.4 2.6-10.8 1.6-4.7-2.1-4.3-4.9-5.9-5.9-6.2-3.7-8-8.2-8.1-15.6-0.2-9.6 6.7-5.9 4.9-9.5-0.9-1.8-5.3-1.1-2.6-6.5 2.1-4.3 4.7-0.9 2.9-7.8-1.6-5.8 1-8.8 1.1-14.6 0.2-10.6-0.3-4.1 3.2-13.8 2.7-7.6 2.2-22.4 3.5-31.7 0.9-6.1 3.9-22.6-1.2-26.9-4.6-4-9.6-2-12.9-11.5-3.1-9-2.6-12-8.8-20.5-5.7-8-3.2-7.1-2.6-16.1 0.7-11.1 9-16.5 8.2-26.3-1-11.9-18.1-3-22.5-18.6-2.1-7.6-7.1-0.8-14-9.2zm9.4-115.3c-2 1.5-2.8 2.7-5.2 4.4-4.6 3.2 0.5 2.6 3.4 1.5 3.1-1.1 2 0.6 6.4 2.1 7.1 2.4-1.4 2.4-2 5.6-0.2 1.2 0 13.9 3 9.5 1.7-2.3-1.3-7.1 3.2-10.1 4.2-2.9 1.9 9 10.5 2.7 6.1-4.4-4.7-4.8-6.8-6.7-3.6-3.2-5.8-12.9-12.5-9z"/><path class="c" d="m1245.9 396.1c-2.1 2.1 1 1.5-3.7 4.4-2.9 1.8 0.6 2.9-4.2 5-6.1 2.6-0.9 5.6-7.1 2.6-1.3-0.6-4.9 3.2-2.3 7.7 1.4 2.5 1.9 7.2 5.9 8.1 2.9 0.7 3.1-0.7 8.2 1 5.1 1.8 4.6-3.7 6.5-7 1.5-2.7-0.5-1.8 2.7-5.7 2-2.4-5.9-6.1-1.1-10.2 1.9-1.6-0.3-1.9 3.1-2.5 1.8-0.4-1.1-1.9-2.3-4-2.1-3.6-2.1-1.8-5.7 0.6z"/><path class="c" d="m1263.8 410.6c-2.1 0.1-6.6-0.3-7.6 2-1.5 3.6-2.6 1.3-2.3 7.6 0.1 4.1-2.6 2.7-0.1 6 0.9 1-0.1 9 3.3 5.5 1.2-1.2-0.7-5.4 1.5-5.5 1.5-0.1-0.2 3.7 3.1 4.9 1.7 0.6 3.6 3.4 4 0.6 0.3-2.1-2.5-2.9-3.3-6.2-0.6-2.9-5.6-3.8-0.3-4.5 3.3-0.5 3.1-2.8-1.4-2.7-3.7 0.1-2.7-3.9-0.5-3.9 3.9-0.1 6.6 2 8.9-3.4 0.6-1.5-0.2-2.5-1.8-1.4-1.3 0.8-2 0.9-3.5 1z"/><path class="c" d="m1324.4 438.9c0.9-2.7 3.5-1.3-1.9-6.3-7.2-6.8-7.3-7.3-17.3-10.7-10.8-3.7-7.5 2.1-10.5 3-2.4 0.6-2.8-5.7-4-6.8-1.9-1.8-11.2 0.1-8.5 1.6 3.5 2.1 3.1 1 3.9 4.9 0.4 1.7 3.6 0.3 5.6 3.1 1.2 1.7 3.7 1.7 6.2 3.2 3 2 2.9 0.4 4 5.4 1.2 5.4-2.6 3-2 4.5 1 2.4 4.4-0.5 7.1 2.1 2 1.8 2.8 1.5 5.4 0.2 3.3-1.6 2.7-8 9.5 0.6 2.1 2.8 5.1 6 9 4.7 2.7-0.8-3.2-3-4.9-5.5-0.8-1.2-1.3-2.6-1.6-4z"/><path class="c" d="m1248.8 442c-6.8-0.5 4.9 6.1 4.6 1.2-0.2-2.9-3.2-1.2-4.6-1.2z"/><path class="c" d="m1256.1 442.5c1.4 1.9 4.3 2.7 6.3 0.7 2.3-2.2-6.8-2-6.5-0.9z"/><path class="c" d="m1255 445.4c0.1 0 3.6 1.8 3.1 2.5-1.5 2.2-5.2-1.8-3.1-2.5z"/><path class="c" d="m1266.2 447.7c1.6-0.4 5.6-2.6 6.2-4 1.6-4.1-2.5-4.6-2-2 0.2 0.9-1.8 1.1-3.2 2.3-0.9 0.9-4.2 3.8-1 3.7z"/><path class="c" d="m1263.8 448.2c0 0-2.7 1-1.8 1.8 0.9 0.7 3.6-0.5 1.8-1.8z"/><path class="c" d="m1276.7 516.3c-7.6 1.6-9.7 5.4-16.7 7-4.1 0.9-6.3 2.2-9.8 3.2-10.3 2.7-4-9-6.1-15-1.9-5.2-5.4-8.7-4.1-14.2 1.8-7.3-2.8-11 3.3-13.7l3.5-1.5c5-2.2 13.4-4.2 15.1-10 1.9-6.3 3.7-2.8 7.2-9.3 3.2-5.9 2.3-3.3 7.2-1.2 5.3 2.3 4-5.4 7.3-7.1 2.2-1.1 15.5-3.4 13.5 1.6-2.1 5.2-2.2 6.4 2.7 10.6 4.9 4.2 9.2 11.6 10.3-2.1 0.1-1.8 0.3-12.7 0.6-13.1 1.3-1.4 4.3 3.3 4.4 6.2 0.2 4.9 0 2.4 3.2 4.8 1.7 1.3 2.5 6.2 3.1 8.6 1.1 4.1-2 3.9 4.5 7.1 4.7 2.3 2.2 4 4.2 8.6 5 9 5.8 5.6 7.2 16.5 0.2 1.7 0.5 3.1 0.8 4.8 1.4 5.9-5 10.9-6.5 18.9-1.1 5.8-1.1 8.1-6.4 12.2-4.1 3.2-6.6 1.8-11.4 1.3-10.1-1-10.4-14.5-14.6-17.7-2.5-1.9-3.1 5.6-6.9-0.3-4.7-7.3-7.1-7.9-15.6-6.2z"/><path class="c" d="m746.5 341.7c0.8 0.1 5 2.6 5.8 3.4 3.2 3.1 6.2 6 11.1 4.9 5.1-1.1-6.2-6.3-8-6.8-3.8-1.1-0.5-3.8-8.2-3.2-9.3 0.9-6.3 5.5-2.5 2.7 0.8-0.6 0.9-0.7 1.8-1z"/><path class="c" d="m776.9 351.3c-9.5-1.9-6.4 3.7-4 4.4 1.2 0.3 11.9-0.2 6.8-3.3-0.9-0.6-1.9-0.8-2.8-1.1z"/><path class="c" d="m1321.7 549.7c-3.4 0.1-3.1-4.6-5-2-2.2 3 1.5 2.6 1.3 4.4-0.4 2.9 0.7 2.2 2.7 4.9 1.4 1.9 2.8 1.3 4.5 0.1 1.8-1.2 0.9-2.8 1.3-5.2 1-5.6-2.5-2.5-4.8-2.2z"/><path class="c" d="m806.4 250.8c-3 4.2 7.8 3.1 8.1 3.2 1.5 0.8-0.7 2.1 2.6 1.5 1.9-0.3 6.3 2.5 5.9-0.5-0.1-0.6-4.2-7.1-5-7.4-0.5-0.2-5.1 0.8-5.5-2.8 0-0.7 1.5-4-2.2-2.9-2.3 0.7-0.3 5.6-2.2 7.5z"/><path class="c" d="m797.4 262.3c-2.8 0.8-3.9-0.7-5.5 2.5-0.9 1.6-7.2 4.6-4.4 5.8 1.1 0.5 7.6-3.3 9.3-4.1 3.4-1.5 1.1-1.8 4.9-3.2 6.7-2.4 1-5.4-0.2-5-0.2 0.1-1.6 2.1-2.6 2.9-0.5 0.4-1 0.7-1.5 1.1z"/><path class="d" d="m560.9 381.8c6.6-73.5-22-133.9-99.2-148.8-64.7-12.6-100.2-14-161.1 16.3-10.8 5.3-19.1 10.8-29 17.6-68.5 51.8-68.1 137.7 21 170.8 57.4 21.4 161.6 32.6 218.9 8.2 31.4-14.5 44.2-37.7 49.4-64.1z"/><path class="d" d="m556.4 523.9c25 6.6 55.9 12.5 70.7-19.9 25.8-56.4-63.4-106.8-89-50.7-14.9 32.4-6.6 64.1 18.3 70.6z"/><path class="d" d="m-40 457.3c420-190.3 343.4 169.2 696.8 168.4 86.6-0.2 276.7 4.9 408.2-3.4 243.1-15.3 338.3 244.4 242.9 429.6h-1347.9z"/><path fill-rule="evenodd" class="d" d="m1002.1 602.3l-12.8 7.4c-1.2 0.7-2.8 0.8-4.1 0l-25.4-14.7c-1.4-0.6-2.4-2-2.4-3.6v-29.8h0.1c0-1.4 0.7-2.7 2-3.4l12.6-7.4 0.2-0.1 12.9-7.4c1.2-0.7 2.7-0.8 4 0l12.9 7.4 12.6 7.3c1.4 0.6 2.3 2 2.3 3.6v29.8c0 1.4-0.7 2.7-2 3.5zm-14.9-0.7l21.8-12.5v-25.2l-10.9-6.3-10.9-6.3-10.9 6.3-0.2 0.1-10.7 6.2v25.2z"/><path class="e" d="m1173.9 757.2l-54.2 26.6 35.1 100.9c20.8 11.1 53 15.6 50.8-12.5-8.9-44.8-26.9-98.4-31.7-115z"/><path class="f" d="m1192.4 818.9l-17-62.8-63 31.3 18.3 47.3c0 0 31.7-1.8 61.7-15.8z"/><path class="g" d="m1054.2 632.2c0 0 19.4 20.3 26 49.7 6.5 29.5 6.5 53.4-40.3 52.5-46.9-0.9-86.4-37.1-90.3-59.7-3.9-22.5-17.9-38.3 14.1-46.9 27.5-7.4 68.5-0.1 79.4 2.1 1.7 0.3 11.1 2.3 11.1 2.3z"/><path class="g" d="m970.5 567.7c2.6 22.6-1 52.3-5.4 59.7 21.5 24.6 82 51.3 80.6 13-8.8-5.2-5.8-11.7-6.8-51.8 0 0-47.3-32.6-68.4-20.9z"/><path class="f" d="m970.9 597.9c15.5 32.1 52.7 43.5 69 34.2-1.3-6.8-0.4-18.7-1-43.5 0 0-47.3-32.6-68.4-20.9 1.1 9.5 1.1 20.3 0.4 30.2z"/><path class="h" d="m1052.6 631.6c75.3 14.1 89.2 28.3 145.4 156.4-11.8 33.2-70.3 41.6-90.5 46.1z"/><path class="i" d="m1174.2 813.5c-22.4 12.8-53.2 17.6-66.7 20.6l-32.8-121.1c8.5-7.1 19.6-13.2 33.9-18 0 0 45.7 54.7 65.6 118.5z"/><path class="h" d="m956.4 629.2c23 27.2 31 42 94.6 72.7 0.3-3.7 3.9-21.6 1.6-48-0.7-8.5-3.1-22.8-2.8-22.7 10 1.7 19.6 3.6 29.7 6.3 17.1 39.5 53.8 98.1 53.8 128.1 0 19.9-2.5 38.7-16 65.3-36.9 15-135.6 12.6-204.7 2.7l-19.1-174.3c9.8-3.5 17.7-19.2 26.1-21.6 11.5-3.4 22.8-6 36.8-8.5z"/><path class="i" d="m1131.7 788.5c-1.9 12.6-6 26-14.4 42.4 2.7 20.8 31.8 134.7 39.4 169.1h-266.1c8.5-29.6 26-83.2 31.3-98.4l-19.9-180c58.3 134.4 188.5 74.9 229.7 66.9z"/><path class="g" d="m914.3 787.8c-12 40.9-35.9 98.1-52.7 137.7-39.2-21.5-32.5-112.9-6.9-184.5 9.2-25.8 75.2-38.7 59.6 46.8z"/><path class="f" d="m914.3 787.8c-4.5 15.4-10.3 32.1-16.7 49l-62.4-10.3c2.4-18.8 4.8-39.8 10.7-58.9l69.9 9.9q-0.6 4.9-1.5 10.3z"/><path class="h" d="m919.6 637.9c51.5 35.9 9.6 128.4-7.4 194.9-21.6-7.6-63.6-15.3-88.9-20.9 2.7-12.4 7.3-33.3 10.1-44.1 21.6-83.9 38.8-115.7 86.2-129.9z"/><path class="f" d="m1106 679.9c0.1-1.1 1-1.9 2.1-1.8 1.1 0.1 2 1 1.9 2.1-0.9 11.7 4.4 24.2 6.6 29.5l0.3 0.7c1.4 3.3 2.2 5.2 3 7.1 7.1 16.8 12.8 30.3 14.4 47 0.5 5.9-0.2 15.4-3.2 28.5-2.3 10.6-6.2 23.4-11.9 38.6-0.4 1.1-1.5 1.6-2.6 1.2-1-0.4-1.5-1.5-1.1-2.6 5.6-15 9.4-27.7 11.7-38.1 2.9-12.6 3.6-21.7 3.1-27.3-1.5-16-7.1-29.3-14.1-45.8-1.1-2.7-2.3-5.5-3-7.1l-0.3-0.6c-2.3-5.6-7.8-18.8-6.9-31.4z"/><path class="f" d="m926.6 681.7c-0.3-1.1 0.4-2.2 1.5-2.4 1.1-0.3 2.1 0.4 2.4 1.5 9.4 41.9-2.5 94.6-12.5 138.9-1.6 7.2-3.2 14.2-4.7 21.2-0.2 1-1.3 1.7-2.3 1.5-1.1-0.2-1.8-1.3-1.6-2.4 1.4-6.5 3-13.7 4.7-21.2 9.9-43.8 21.7-96.1 12.5-137.1z"/><path class="j" d="m828.7 792.5c-1.5-0.4-2.4-2-2-3.5 0.4-1.5 1.9-2.4 3.4-2 12.9 3.5 32.7 8.7 51.5 13.2 13.1 3.2 25.9 6.2 36 8.1 1.6 0.3 2.6 1.8 2.3 3.3-0.3 1.6-1.8 2.6-3.3 2.3-10.2-2-23.1-5-36.3-8.2-19.3-4.7-38.9-9.8-51.6-13.2z"/><path class="j" d="m942.5 631.3c-0.6-0.9-0.2-2.1 0.8-2.7 1-0.5 2.2-0.1 2.7 0.8 9.6 17.9 25.5 34.8 44.2 49 20 15.3 43.2 27.6 64.9 34.7 2.7-2.7 4.8-14.5 5.5-30.8 0.5-14.9-0.4-33.5-3.8-52.2-0.1-1 0.6-2.1 1.7-2.3 1-0.2 2.1 0.5 2.3 1.6 3.4 19 4.3 37.9 3.8 53.1-0.8 18.8-4.1 32.4-8.1 34.6-0.5 0.3-1.1 0.3-1.6 0.2-22.4-7.3-46.4-19.9-67.2-35.7-19-14.6-35.4-31.9-45.2-50.3z"/><path class="j" d="m1128.2 814.4c-1 0.3-2.1-0.3-2.4-1.4-0.3-1 0.3-2.1 1.4-2.4l0.1-0.1c15.1-4.1 47.5-13.1 63.6-35.9 0.6-0.9 1.9-1.2 2.8-0.5 0.9 0.6 1.1 1.9 0.5 2.8-17 24-50.3 33.2-65.8 37.5z"/><path class="f" d="m970.4 846.5c-1 0.3-2.1-0.2-2.5-1.2-0.4-1.1 0.1-2.2 1.2-2.6 0.1-0.1 51.6-19.3 121.8-12.9 1.1 0.1 1.9 1.1 1.8 2.1-0.1 1.1-1 2-2.1 1.9-69.4-6.4-120 12.6-120.2 12.7z"/><path class="e" d="m947.9 781.2l-87.1 70.2c-27.7 22.2-26.7 69.2 11.2 77.8 17.5 4 34.6-7.2 50.7-25.3 24.7-27.8 46.9-71.9 64.2-101.6-13.9-18.7-26-23-39-21.1z"/><path class="g" d="m841.9 896.5c1.9 15.2 11.6 28.5 30.1 32.7 17.5 4 34.6-7.2 50.7-25.3 24.7-27.8 46.9-71.9 64.2-101.6q-3.7-5-7.3-8.7c-5.1 1.8-9 4.6-9 4.6 0 0-34.9 74.4-72.8 97.5-29.8 18.1-49 6.6-55.9 0.8z"/><path class="f" d="m882.7 829.3c0.9-0.7 2.1-0.5 2.8 0.3 0.7 0.9 0.6 2.2-0.3 2.8l-2.4 2c-7.4 5.9-19.6 15.5-24.4 23.9-0.6 1-1.8 1.3-2.7 0.7-1-0.5-1.3-1.7-0.8-2.7 5.3-9 17.8-19 25.4-25.1z"/><path class="e" d="m963.9 735.9c4-5.1 18.7-30.4 23.9-33.5 3.9-2.3 17.2-5 5.5 23.4 14.5 6.3 32.1 20.7 33 23.3 1.2 3.6 2.7 10 0.5 16.1-3.4 9.2-11.7 14.3-10.9 2.1l-13.7 22c-13.2 21.1-50-29-38.3-53.4z"/><path class="e" d="m1006.7 780.5c-2.6-20.8-22.9-35.8-42.9-44.2-9.4 11.7-15.7 32-16.1 44.9 17.3 4.9 19.9 26.4 39.2 21.1 9.6-2.6 16.7-12.6 19.8-21.8z"/><path class="f" d="m979.6 738.6c-0.8 0.8-2 0.9-2.8 0.1-0.8-0.8-0.8-2.1 0-2.8 2.6-2.8 5.5-5.4 8.3-7.5 2.7-2.1 5.4-3.7 7.5-4.5 1-0.4 2.2 0.1 2.6 1.1 0.4 1.1-0.1 2.2-1.1 2.6-1.9 0.7-4.1 2.1-6.6 4-2.6 2-5.3 4.4-7.9 7z"/><path class="f" d="m992.1 747.3c-0.8 0.8-2 0.8-2.9 0.1-0.8-0.8-0.8-2-0.1-2.8 2.9-3.1 5.9-5.9 8.8-8.1 2.9-2.4 5.7-4.1 7.9-4.9 1.1-0.4 2.2 0.1 2.6 1.1 0.4 1-0.1 2.2-1.1 2.6-1.9 0.7-4.3 2.2-7 4.3-2.6 2.1-5.5 4.7-8.2 7.7z"/><path class="f" d="m1003.6 757.3c-0.7 0.9-1.9 1-2.8 0.3-0.8-0.6-1-1.9-0.3-2.8 2.8-3.4 5.6-6.1 8.3-8.2 3.5-2.9 6.8-4.6 9.2-5.5 1-0.4 2.2 0.1 2.6 1.1 0.4 1-0.1 2.2-1.2 2.6-2.1 0.8-5 2.4-8.1 4.9-2.5 1.9-5.1 4.4-7.7 7.6z"/><path class="f" d="m1016.5 773.5c-0.4 1-1.5 1.6-2.5 1.2-1.1-0.4-1.6-1.5-1.3-2.5 0.1-0.1 3.2-9.3 3.9-13.1 0.1-1.1 1.2-1.8 2.2-1.6 1.1 0.1 1.9 1.2 1.7 2.3-0.7 4-4 13.7-4 13.7z"/><path class="f" d="m970.1 803.7c-1-0.3-1.6-1.5-1.3-2.5 0.3-1.1 1.5-1.6 2.5-1.3 0.1 0 15.1 4.8 22.6-3.4 0.8-0.8 2-0.8 2.9-0.1 0.8 0.8 0.8 2 0.1 2.8-9.3 10.1-26.7 4.5-26.8 4.5z"/><path class="e" d="m981.2 710c4.3-6.5 24.7-35.1 31.5-29.1 6.8 6.1-8.8 23.6-17.5 37.8-6.8 2.8-15.8-0.8-14-8.7z"/><path class="f" d="m1037.2 610.9c-0.1-1.1 0.8-2 1.9-2.1 1.1 0 2 0.9 2.1 2v1.5c0.1 5.6 0.4 19.4 2.8 34.5 0.2 1.1-0.6 2.1-1.6 2.3-1.1 0.2-2.2-0.6-2.3-1.7-2.5-15.4-2.8-29.3-2.9-35z"/><path class="k" d="m1031.2 795.1l116-9.2c11.4-0.9 7.5 7.6 5.1 19.2l-28.8 144.9-7.7 5.6-1.9 5.5-109.1 9.7-6.5-5.3-3.4-9.9 26.1-143.7c1.6-9 1-16.1 10.2-16.8z"/><path class="f" d="m1147.4 830.1l-24.2 121.6c-2 9.7-2.6 8.8-12.1 9.6-37.9 3.4-68 6.3-106.7 9.7-6.4 0.6-12.7 2.3-11.7-3.6l8.7-49c41.6-7.4 114.2-29.2 146-88.3z"/><path class="l" d="m1073.2 791.8l47.7-4q-1.8 7.3-3.5 14.5c-1.7 6.9-1.8 5.6-8.8 6.5-11.5 1.1-19 2-30.5 3.1-7.2 0.6-8.7 1.7-7.4-5.6z"/><path class="f" d="m995 967.3c-0.3 1.5-1.6 2.4-3.1 2.2-1.4-0.3-2.4-1.7-2.1-3.1l28.6-155c0.3-1.4 0.4-2.7 0.6-3.9 1.2-8.3 2.1-14.3 12-15.1l116-9.1c1.5-0.2 2.8 0.9 2.9 2.4 0.1 1.5-1 2.8-2.5 2.9l-115.9 9.1c-5.8 0.5-6.4 4.7-7.2 10.5-0.2 1.4-0.4 2.8-0.6 4.1h-0.1z"/><path class="e" d="m1097.9 893.9c33-19 45-34.9 59.8-38.9 33.3-9.2 44.6-5.2 48.1 18 4.1 34-53.8 55.2-110 59z"/><path class="f" d="m1143.3 864.2c-1 0.5-2.2 0.1-2.7-0.9-0.5-1-0.1-2.2 0.9-2.6 6.6-3.3 12-5.4 17.2-6.4 5.3-1 10.4-0.9 16.3 0.2 1.1 0.2 1.8 1.3 1.6 2.3-0.2 1.1-1.3 1.8-2.4 1.6-5.4-1-10-1.1-14.7-0.2-4.9 1-10 3-16.2 6z"/><path class="e" d="m1119.4 903.2c0 12.7 11.8 17.3 1.4 23.1-23.3 12.9-80.5 15.4-80.9 11.9-0.5-3.9 9.3-3.2 29.8-10.4-16 1.6-40.1 4.5-39.6-0.7 0.7-6.6 15.6-5.3 38.2-12.8-24 4.6-41.7 4.7-40.8-0.7 0.8-5.3 21.4-4.1 41.7-9-22.5 1.4-36.7-0.8-36.4-4.1 0.5-5.3 8.1-3.7 35.4-7.7 24.1-3.5 51.3-8.8 51.2 10.4z"/><path class="e" d="m1070.3 864.8c3.8-2.3 41.2 21.9 46.1 34.7-0.8 20.2-25.3 14.8-30.9-8-9.5-10.8-21.2-23-15.2-26.7z"/><path class="f" d="m1112 898.9c-0.3-1.1 0.4-2.2 1.4-2.4 1.1-0.3 2.2 0.4 2.4 1.5q1.2 4.9 2 10 0.7 4.8 1 9.9c0.1 1.1-0.7 2-1.8 2.1-1.1 0.1-2.1-0.8-2.1-1.9q-0.4-4.8-1.1-9.5-0.7-5-1.8-9.7z"/><path class="f" d="m878.9 519.3c-3.5 33.8 27.5 77.8 80.4 53 32.7-15.3 25.6-44.1 18.2-63.1-6.8-17.8-19.7-26.9-40-31.1-23.8-5-55.1 6.6-58.6 41.2z"/><path class="f" d="m965 555.8c-2.5 0.6-5.4 13.8-7.7 14.8-10 4.2-17.1 11-10.6 14.3 3.4 1.7 8.2-0.5 12.7-3.6-2.1 6.5-2.9 12.8 1 14.1 6.8 2.3 10.1-4.1 9.4-14.1-0.2-2.2 4.7-7.6 4.2-10.2l-0.3-0.6c1.8-1.8-3.8-11.4-3.8-11.4l-2.7-3.1-0.9-2.9c0 0-0.6 1.1-1.3 2.7z"/><path class="g" d="m911.7 510.2c-2.3 22.6 18.4 52 53.8 35.5q3.5-1.6 6.1-3.5c-32.1 11.3-50.7-16.3-48.5-37.7 1-9.7 5.3-16.7 11-21.4-11 3.1-20.8 11.7-22.4 27.1z"/><path class="e" d="m964.9 561.7c9.6 40.1 53.6 58.3 84.3 55.5 30.7-2.8 43-34.7 45.8-61.8 3.4-32-4.8-68.3-16-88.3-7.1-12.8-45-28.9-76.8-20.6-31.7 8.2-59.9 51.2-37.3 115.2z"/><path class="g" d="m1087.3 488.8c-2.1-8.3-4.9-15.7-8.3-21.7-5.7-10.3-31.3-22.7-57.6-22.9-32.3 12.5-48.7 61.5-48.7 61.5 32.4-5.9 64-12 87.2-37.3 0 0 17.7 7.6 27.4 20.4z"/><path class="f" d="m966.5 542.8c23.9-18.3 23.6-52.5 23.1-58.7-1.7-20.5-43.4-8-53.1 3.5-9.7 11.5-3.4 38.2 30 55.2z"/><path class="e" d="m961.7 537.7c-10.8-13-34.9-10.9-34.8 9.3 0.1 20.1 18.3 33.3 30.9 27.9 12.7-5.4 12.7-22.7 3.9-37.2z"/><path class="g" d="m954.8 551.3c0.3 1.9-5.5 2-6.2 4-1.6 4.9 3.7 6.7 2.6 7.8-2.2 2.1-6.3 1.9-10.9-3.7-9.2-11.4-3.3-24.2 4.3-20.6 6.3 3 9.4 7 10.2 12.5z"/><path class="f" d="m935.1 548.2c0 0.6 0.6 1 1.3 1 0.7-0.1 1.2-0.7 1.1-1.2-0.3-3.5 0.4-5.7 1.7-6.8 0.6-0.7 1.5-1 2.4-1.1 1.1 0 2.3 0.2 3.5 0.6 3.5 1.4 7.1 4.6 8.5 8.6 0.3 1-0.1 1.3-0.7 1.5q-0.4 0.2-1 0.3c-1.3 0.3-2.7 0.6-3.9 1.7q-0.3 0.2-0.5 0.5c-1 1.2-1.4 2.9-1.1 4.6 0.2 1.7 1.2 3.5 2.8 4.9q0.6 0.6 1.3 1c0.6 0.4 1.3 0.2 1.8-0.3 0.4-0.4 0.3-1.1-0.3-1.5q-0.5-0.3-1-0.7c-1.3-1.2-2-2.5-2.2-3.8-0.2-1.2 0-2.3 0.6-3q0.2-0.1 0.3-0.2c0.7-0.6 1.8-0.9 2.7-1.1q0.7-0.2 1.3-0.3c1.9-0.6 3.2-1.6 2.2-4.3-1.6-4.6-5.7-8.3-9.7-9.9-1.6-0.6-3.2-0.8-4.7-0.7-1.5 0.1-3 0.7-4.1 1.7-1.7 1.6-2.7 4.4-2.3 8.5z"/><path class="f" d="m933.2 509.2c14.3-1.7 29.8-3.8 50.3-9.2 31.1-8.2 59.5-13.1 71.8-39.2 6.4 0.4 12.6 3.2 18.2 7.8 4.5 3.7 15.3 17.1 18.6 38.4 36.4-42.7 2-111-37.9-79.7-37.7-65-161.7-2.1-121 81.9z"/><path class="m" d="m942.9 430.1c43.2 25.4 120.8 28.2 161.9 15.2-2.4-6.9-6-12.9-10.6-17.5-35.8 18.5-88.4 0-120.5-20.3-11.6 5.2-22.3 12.9-30.8 22.6z"/><path class="f" d="m1054.3 428.8c13.6-5.7 25.4-17.8 15.8-20.9-4.1-1.2-8.8 1.9-12.9 6 0.8-7.3 0.3-14.2-4.1-15-9.7-1.6-10.7 10-4.5 24.3l0.4 0.7c-1.5 2.2-2.4 3.8-2.4 3.8l5.2 1.2 1.7 3c0 0 0.3-1.2 0.8-3.1z"/><path class="b" d="m958.8 564.4c-1.9-0.2-3.6 1.2-3.8 3.2-0.2 1.9 1.3 3.6 3.2 3.8 1.9 0.1 3.6-1.3 3.8-3.2 0.2-2-1.3-3.7-3.2-3.8z"/><path class="g" d="m1052 556.6c0-0.6 3.5 0 8-0.2 4-0.3 9.2-1.5 9.2-1.1 0.1 4-3.4 8.2-8 8.3-4.6 0-9-3-9.2-7z"/><path class="b" d="m1064 540.1c0.8-0.3 2.9 6.1 3.5 8.4 0.6 2.3-2.5 3.1-3.1 0.8-0.6-2.3-1.3-9-0.4-9.2z"/><path class="f" d="m1031.6 517.8c-4.1-0.4-7.8 3-8.2 7.7-0.4 4.6 2.7 8.6 6.9 9 4.2 0.4 7.9-3 8.2-7.6 0.4-4.6-2.7-8.6-6.9-9.1z"/><path class="b" d="m1034.9 518.4c-1.2-0.1-2.2 0.8-2.3 2-0.1 1.2 0.8 2.2 2 2.3 1.2 0.1 2.2-0.7 2.3-1.9 0.1-1.2-0.8-2.3-2-2.4z"/><path class="f" d="m1040.9 497.2c0.6-4.9-4.6-7-8-6.9-4.1 0-15.6 4.7-17 6.5-7.1 9.3 24.1 8 25 0.4z"/><path class="f" d="m1069.7 495c0.2-3.7 7.4-3.9 10.2-3.8 3.8 0.2 5.9 1.5 7.1 3.1 4.1 5.7 2.9 10.1-4.7 8.7-5.6-1-12.7-4.2-12.6-8z"/><path class="g" d="m1013.3 542.9c8.4 0.1 15.2 5.4 15.1 11.7-0.1 6.3-7 11.4-15.5 11.2-8.4-0.1-15.2-5.3-15.1-11.7 0.1-6.3 7-11.3 15.5-11.2z"/><path class="g" d="m1042.8 590.2c-0.1-0.5 3.2 0.4 7.7 0.6 3.9 0.2 9.1-0.5 9.2-0.2 0 3.6-2.1 6.5-8.5 6.8-5.2 0-8.4-3.6-8.4-7.2z"/><path class="f" d="m1054.5 558.3c-0.7 0-1.4-0.5-1.4-1.3 0-0.7 0.6-1.3 1.3-1.3l1.8-0.1c3.9-0.1 8.5-0.2 12.3-2.4 0.7-0.3 1-0.7 1-1.3 0-1-0.4-2.5-1-4.8-0.7-2.7-1.7-6.5-2.7-9.9-0.9-3-1.8-5.7-2.4-7.2-0.2-0.7 0.1-1.5 0.8-1.7 0.7-0.3 1.5 0 1.7 0.7 0.6 1.6 1.5 4.4 2.4 7.5 1 3.3 2.1 7.1 2.8 10 0.7 2.4 1.1 4.1 1 5.4 0 1.7-0.7 2.8-2.2 3.7-4.4 2.5-9.5 2.6-13.6 2.7q-0.9 0-1.8 0z"/><path class="b" d="m1064.5 565.2c-5.3 1.4-13.3 3.6-25.4 0.3-10.5-2.9-1.8 21.7 13.3 21.7 12.8-0.1 16.2-10.8 17.7-18.1 1.2-6.1-1.9-4.9-5.6-3.9z"/><path class="f" d="m1078.7 516.1c-3.5-0.4-6.6 2.7-6.9 6.8-0.4 4.2 2.2 7.9 5.8 8.3 3.5 0.3 6.6-2.7 6.9-6.9 0.3-4.2-2.3-7.9-5.8-8.2z"/><path class="b" d="m1082 516.3c-1.2-0.1-2.2 0.8-2.3 2-0.1 1.2 0.8 2.2 2 2.3 1.2 0.1 2.2-0.8 2.3-2 0.1-1.2-0.8-2.2-2-2.3z"/><path class="g" d="m1084.9 542.9c5.5 0.1 10 5.4 9.9 11.7-0.1 6.3-4.6 11.4-10.1 11.2-5.6-0.1-10-5.3-10-11.7 0.1-6.3 4.6-11.3 10.2-11.2z"/><path class="g" d="m921.2 833.1l-29.8-103.9-69.6 34.2 31.1 80.3z"/><path class="n" d="m832.2 790.4l20.7 53.3 0.9-0.2c11.9-6.5 21.3-4.9 21.3-4.9 0 0-2-22.5-11.7-49.2-0.9-3.9-17.6-2.2-31.2 1z"/><path class="f" d="m911.6 799.8l-20.2-70.6-69.6 34.2 20.7 53.5c0 0 35.3-1.3 69.1-17.1z"/><path class="o" d="m754.1 587.2c82.6 21.2 99.6 43.8 164.5 176.9-13.3 37.5-79.5 47.1-102.3 52.2z"/><path class="p" d="m878.4 799.4c-23.1 9.8-49.4 14-62.1 16.9l-30-110.4c9.1-9.9 20.8-19.7 35.8-29.1 0 0 41 60.2 56.3 122.6z"/><path class="n" d="m746.5 585.9c0 0 31.5 24.9 38.9 58.2 7.4 33.4 7.4 60.4-45.6 59.4-53-1-97.7-42-102.1-67.5-4.5-25.5-20.3-43.4 15.8-53.1 36.2-9.7 93 3 93 3z"/><path class="o" d="m567 1000c17.9-148.2 27.1-206.4 12-391.4 18.1-12 46.3-21 73.8-25.9 14.9 28.7 24.1 43.1 83.4 74.7 12.8-30.6 15.1-43 8.5-71.8 13.6 2.3 34.7 8.7 52 15.7 38.8 82.9 37.1 208.1 43.9 398.7z"/><path class="p" d="m567 1000c12.7-106.7 18.3-169.1 14.8-264.6 10.1-12.7 21.6-24.4 34.4-34.8 0 0-12.4 81.3 34.3 136.4 36.2 42.7 135.8 71.4 186 26.2 1.3 41.6 2.3 87.1 4.1 136.8z"/><path class="f" d="m610.4 1000c0 0 5.9-273.7 5.9-274.3 0-1.1-0.8-2-1.9-2.1-1.1 0-2 0.9-2.1 2 0 0.5-5.8 274.4-5.8 274.4z"/><path class="n" d="m661.2 514.8c3.1 25.7-1.1 59.2-6.1 67.7 24.4 27.8 92.9 57.9 91.2 14.6-9.9-5.8-6.5-13.2-7.6-58.6 0 0-53.6-36.8-77.5-23.7z"/><path class="f" d="m661.2 514.8c0.6 5.9 1.2 12.1 0.8 18.3-3.1 43.3 52.6 65.2 77 46.7-0.2-8.3 0.2-21-0.3-41.2 0 0-53.6-36.9-77.5-23.8z"/><path class="g" d="m597.7 763.9c-13.5 46.2-37.6 102.6-56.6 147.4-16.1-10-45.8-19.6-42.4-66.9 3.4-47.3 21.2-104.3 31.6-133.5 10.4-29.2 85-43.7 67.4 53z"/><path class="f" d="m597.7 763.9c-5.1 17.4-11.7 36.3-18.9 55.4l-74.7-14c4.3-22.6 10.4-45.2 16.2-64.3l79.1 11.3q-0.6 5.5-1.7 11.6z"/><path class="o" d="m586.5 604.7c43.1 23.9 37.9 64.3 26.5 117.3-6 28.1-11 66.7-17.7 92.8-24.5-8.6-79-19.4-107.5-25.8 15-79.6 51-161.3 98.7-184.3z"/><path class="g" d="m706 975.5c-7.4-14.8-37-51.4-55.4-44.8-16.1 5.7-13.5 44.8-13.5 44.8z"/><path class="g" d="m673.5 937.5l-106-100.1c-16-15.1-74.2-22.7-68.4 26.5 4.6 38.5 102.6 81.3 138.1 97.9z"/><path class="g" d="m769.3 975.5c7.4-14.8 37-51.4 55.4-44.8 16.1 5.7 13.5 44.8 13.5 44.8z"/><path class="g" d="m796.1 943.6l56.8-99.9c3.3-5.8 10.6-9.7 19.2-15.2 19.8-12.7 46.9-20.8 51 13.6 4.7 38.4-55.5 92.1-86 116.6z"/><path class="f" d="m857.7 843.4c-0.7 0.9-2 0.9-2.8 0.2-0.9-0.7-1-1.9-0.3-2.8 0.1 0 16.2-18.9 30.9-17.5 1.1 0 1.9 1 1.8 2.1-0.1 1.1-1 1.9-2.1 1.8-12.7-1.2-27.5 16.2-27.5 16.2z"/><path class="f" d="m819.3 672.6c-0.2-1.1 0.5-2.2 1.6-2.4 1.1-0.2 2.1 0.5 2.3 1.6 3.7 19.6 6.5 40.7 8.6 63.7 2.1 22.8 3.6 47.5 4.7 73.9 0.1 1.1-0.8 2-1.9 2.1-1.1 0-2-0.8-2-1.9-1.2-26.4-2.7-51-4.8-73.8-2.1-22.8-4.8-43.8-8.5-63.2z"/><path class="f" d="m600.5 647.7c-0.5-0.9-0.2-2.1 0.8-2.7 1-0.5 2.2-0.2 2.7 0.8 4.8 8.5 8.3 19.3 10.5 29.5 2.9 13 3.8 25.3 2.8 31-2.2 12.2-3.9 23.1-5.5 33.6-3.7 24.2-7.2 46.9-14.5 75.4-0.3 1.1-1.4 1.8-2.5 1.5q-0.1 0-0.2-0.1c-19.1-6.7-56.3-14.7-85.3-21-8-1.7-15.4-3.3-22-4.7-1.1-0.3-1.7-1.3-1.5-2.4 0.2-1.1 1.3-1.8 2.4-1.5 5.9 1.3 13.6 2.9 21.9 4.7 28.1 6.1 64.1 13.8 83.8 20.4 6.9-27.4 10.4-49.5 14-72.9 1.7-10.9 3.4-22 5.4-33.7 1-5.3 0.1-16.9-2.7-29.4-2.2-10-5.5-20.4-10.1-28.5z"/><path class="f" d="m620 979.2c-1.1 0-2.1-0.8-2.1-1.9-0.1-1.1 0.8-2.1 1.9-2.1 0.2 0 66.8-3.6 86.4-1.7 1.1 0.1 1.9 1.1 1.8 2.2-0.1 1.1-1.1 1.9-2.2 1.8-19.3-1.9-85.6 1.7-85.8 1.7z"/><path class="f" d="m838.4 974.5c1.1 0.1 1.9 1 1.9 2.1-0.1 1.1-1 2-2.1 1.9-12.2-0.5-30.5-1.3-46.3-1.5-10.8-0.1-20.4 0-26 0.5-1.1 0.1-2.1-0.7-2.2-1.8-0.1-1.1 0.7-2.1 1.8-2.2 5.7-0.5 15.5-0.6 26.4-0.5 16 0.3 34.3 1 46.5 1.5z"/><path class="f" d="m758.2 589.9c-0.2-1.1 0.6-2 1.7-2.1 1.1-0.2 2.1 0.6 2.2 1.7 1.6 16.2 0.3 30.3-3.3 43.5-3.7 13.2-9.5 25.3-17.1 37.5-0.5 0.8-1.5 1.1-2.3 0.8-22.5-7.6-45.4-19-63.9-34.9-15.3-13.2-27.7-29.5-34.1-49.3-0.3-1.1 0.3-2.2 1.3-2.6 1.1-0.3 2.2 0.3 2.5 1.3 6.2 19.1 18.1 34.8 32.9 47.6 17.7 15.1 39.5 26.1 61.1 33.6 6.9-11.4 12.3-22.8 15.7-35 3.5-12.8 4.8-26.4 3.3-42.1z"/><path class="f" d="m740.9 582.2c-2.1-0.8-3.2-3.1-2.4-5.1 0.7-2.1 3-3.2 5.1-2.4 14.8 5.5 25.3 17.3 32.5 31.4 9 17.9 12.7 39.7 12.9 57 0 2.2-1.8 4-4 4-2.2 0-4-1.8-4-4-0.2-16.2-3.6-36.6-12.1-53.4-6.3-12.5-15.4-22.8-28-27.5z"/><path class="q" d="m667.4 722.4c10.7-4.7 23.6 1.4 28.8 13.4 5.2 12.1 0.8 25.6-9.9 30.3-10.7 4.6-23.6-1.5-28.8-13.5-5.3-12.1-0.8-25.6 9.9-30.2z"/><path class="f" d="m671.9 732.9c5.6-2.4 12.2 0.7 14.9 7 2.7 6.2 0.4 13.2-5.1 15.6-5.5 2.4-12.2-0.7-14.9-7-2.7-6.2-0.4-13.2 5.1-15.6z"/><path class="f" d="m680.1 740.6c1.1 1.9 0.5 4.4-1.4 5.5-1.9 1.1-4.4 0.5-5.5-1.4-14.9-25.3-36.2-62-45.8-95.4-10-34.9-7.2-66.2 27.9-78.2 2.1-0.7 4.4 0.4 5.1 2.5 0.7 2.1-0.4 4.4-2.5 5.1-29.6 10-31.6 37.5-22.8 68.4 9.3 32.5 30.3 68.6 45 93.5z"/><path class="q" d="m797.3 734.2c0.5-1.4 2-2.1 3.4-1.6 1.4 0.5 2.1 2.1 1.6 3.5-0.8 2-2.7 6-5.7 10.4-3.8 5.6-9.3 11.9-16.6 15.9-7.4 4-16.5 5.6-27.3 1.5-3.2-1.2-6.7-3-10.2-5.4-1.2-0.8-1.5-2.5-0.7-3.7 0.8-1.2 2.5-1.5 3.7-0.7 3.2 2.2 6.2 3.7 9.1 4.9 9.1 3.4 16.7 2.1 22.9-1.3 6.3-3.5 11.3-9.1 14.7-14.1 2.7-4.1 4.4-7.7 5.1-9.4z"/><path class="q" d="m752.9 728.1c-0.4-1.5 0.4-2.9 1.8-3.3 1.4-0.4 2.9 0.4 3.3 1.8 3.6 13.1 7.6 24.3 14.6 30.9 6.6 6.3 16.3 8.5 31.6 3.9 1.4-0.4 2.9 0.4 3.3 1.8 0.5 1.4-0.3 2.9-1.7 3.3-17.5 5.2-28.9 2.5-36.9-5.2-7.8-7.4-12.2-19.4-16-33.2z"/><path class="f" d="m759.4 726.8c0.3 2.2-1.3 4.2-3.4 4.5-2.2 0.3-4.2-1.2-4.5-3.4 0-0.1-0.2-0.7-0.3-1.5-1.2-5.5-4.6-21.6-2.8-36.5 2-17.6 10.8-33.3 36.7-30.2 27.5 3.2 32.9 20.8 30.7 39.1-1.7 14.6-8.6 29.6-12 37l-0.7 1.6c-0.9 2-3.3 2.9-5.3 2-2-0.9-2.9-3.3-2-5.3l0.8-1.6c3.2-7 9.7-21.2 11.3-34.6 1.6-14.2-2.5-27.8-23.8-30.3-19.5-2.3-26.2 9.8-27.8 23.2-1.6 13.6 1.6 28.8 2.7 34 0.2 0.9 0.3 1.6 0.4 2z"/><path class="q" d="m743.4 750.6c3.1-0.4 6 1.8 6.4 4.9 0.4 3.1-1.8 5.9-4.9 6.3-3.1 0.5-6-1.7-6.4-4.8-0.4-3.1 1.8-6 4.9-6.4z"/><path class="q" d="m804.2 758.4c3.1-0.5 6 1.7 6.4 4.8 0.4 3.1-1.8 6-4.9 6.4-3.1 0.4-5.9-1.8-6.3-4.9-0.4-3.1 1.7-5.9 4.8-6.3z"/><path class="f" d="m646.3 833.1c-0.6-0.9-0.4-2.2 0.5-2.8 0.9-0.7 2.2-0.4 2.8 0.5 0.1 0.2 48.4 70.2 153.8 51.2 1.1-0.1 2.2 0.6 2.3 1.7 0.2 1-0.5 2.1-1.6 2.3-107.9 19.4-157.6-52.7-157.8-52.9z"/><path class="f" d="m909.3 745.9c0.6-0.9 1.9-1.2 2.8-0.6 0.9 0.6 1.2 1.8 0.6 2.8-0.1 0.1-21.3 33.9-78.1 41.9-1.1 0.1-2.1-0.7-2.3-1.7-0.1-1.1 0.6-2.1 1.7-2.3 55-7.7 75.3-40 75.3-40.1z"/><path class="f" d="m641.7 963.3c-1.1-0.1-1.9-0.9-1.8-1.9 0-1.1 0.8-1.9 1.9-1.9 0 0 12.7 0.4 28.8-5.2 0.9-0.4 2 0.1 2.3 1.1 0.4 1-0.1 2-1.1 2.4-16.7 5.8-30.1 5.5-30.1 5.5z"/><path class="f" d="m580.2 846.5c0.8 0.7 0.8 1.9 0 2.6-0.7 0.8-1.9 0.8-2.6 0 0 0-13.8-13.7-31.3-10-1 0.2-2-0.4-2.2-1.5-0.2-1 0.5-1.9 1.5-2.2 19.4-4.1 34.6 11 34.6 11.1z"/><path class="f" d="m839.2 956.8c0.7 0.8 0.6 2-0.1 2.7-0.8 0.7-2 0.6-2.7-0.2 0 0-6.2-7-17.1-8.8-1-0.2-1.7-1.2-1.6-2.2 0.2-1 1.2-1.7 2.2-1.5 12.2 2.1 19.3 10 19.3 10z"/><path class="f" d="m662.1 390.2c4.8 10.3 21.1 18.5 32.5 15.7 7.5 15.7 19.9 17.3 39.6 10.9 1.7 7.8 2 18.7 17.1 20.7-5.1 8.3-2.5 23.1 6.5 26-6.4 7-4.8 21.7 2.9 27.9-3.5 12.8 16.8 13.2 19.4 1.1 11.8-0.8 16.8-9.8 13.4-17.9 12.6-2.9 20.9-19.7 10.1-31.3 10.3-4.1 11.6-25.4-4.8-27.3 11.8-7.2 5.2-32.8-12-30.9 4.9-14.1-38.2 8.3-52.4 12.6 3.9-12.3-15-27.7-28.5-12.9-2.9-14.2-23-19.2-31-1.5-2.6-10.5-31.1-6.7-25.7 9.2-17.6 2.1 11.7-18.6 12.9-2.3z"/><path class="f" d="m783.8 398.4c0 0 19 10.7 6.9 33.2-12.1 22.4-30.4-30.4-30.4-30.4 0 0 11.1-5.4 23.5-2.8z"/><path class="g" d="m657.4 514.2c11 45 60.7 63.9 93.7 59 26.4-4 35.6-24.4 40.6-48.1 8.3-38.4 3.5-87.6-10.8-113.1-7.8-13.9-48.8-31.3-83.1-22.4-34.3 9-64.8 55.4-40.4 124.6z"/><path class="n" d="m783.4 417q-1.2-2.7-2.5-5c-7.8-13.9-48.8-31.3-83.1-22.4-14.8 3.9-28.9 14.7-38.2 31.3 5.1 14.5 13.8 28.8 26.9 36.2 8.3-6.5 10.4-14.1 9.9-22.5-0.5-8.3-0.5-8.3-0.5-8.3 0 0 10.6 0 16-4 5.4-4.1 8.6-9.3 8.6-9.3 0 0 2.7 3.4 13.7 3.2 11.1-0.1 13.6-4.9 13.6-4.9 0 0 5.8 7 17.6 5.1 11.7-2 13.3-4.1 13.3-4.1 0 0 1.9 1.6 4.7 4.7z"/><path class="f" d="m651 498.6c12.3-3.7 24.3-20.5 23-33.8 18.9-5.7 22.7-19.2 18.9-42.3 9-0.6 21.2 0.9 26.1-15.7 8.3 7.1 25.3 6.8 30.1-2.8 6.7 8.3 23.4 9 31.6 1.4 13.7 6.1 19.7-15.2 6.7-20.1 3.3-19.6-9.6-23.7-19.2-21.3-1.2-14.6-19.2-24.8-33.9-14.6-2.9-12.2-26.5-17.3-31.4 0.8-6-14.4-35.7-11.4-36.6 8.2-14.9-7.9-27.8 0.7-25.5 17.3-13-6.5-33.4 12-19.2 29.6-16.3 0.8-25.3 22.5-6.9 34.4-12.1 1.1-12.6 33.6 6 30.2-0.6 20 11.9 27.2 30.3 28.7z"/><path class="g" d="m659.5 486.7c-11.7-14.1-37.8-11.8-37.6 10 0.1 21.8 19.7 36 33.4 30.2 13.7-5.8 13.7-24.6 4.2-40.2z"/><path class="n" d="m652 501.4c0.3 2-5.9 2.1-6.7 4.3-1.7 5.3 4.1 7.3 2.8 8.5-2.4 2.2-6.8 2-11.8-4.1-9.9-12.3-3.5-26.1 4.7-22.2 6.8 3.2 10.2 7.5 11 13.5z"/><path class="f" d="m630.7 498.1c0.1 0.6 0.7 1.1 1.4 1 0.8-0.1 1.3-0.7 1.3-1.3-0.4-3.8 0.4-6.1 1.7-7.4 0.7-0.6 1.6-1 2.7-1.1 1.1-0.1 2.4 0.2 3.7 0.7 3.8 1.4 7.7 4.9 9.2 9.2 0.4 1.1 0 1.5-0.7 1.7q-0.5 0.1-1.1 0.3c-1.4 0.3-3 0.7-4.2 1.8q-0.3 0.2-0.6 0.5c-1.1 1.3-1.5 3.1-1.2 5 0.3 1.9 1.3 3.8 3.1 5.3q0.6 0.6 1.4 1.1c0.6 0.4 1.4 0.3 1.9-0.3 0.4-0.5 0.3-1.2-0.3-1.6q-0.6-0.4-1.1-0.8c-1.3-1.3-2.1-2.7-2.3-4.1-0.3-1.3 0-2.5 0.6-3.2q0.2-0.2 0.3-0.3c0.7-0.6 1.9-0.9 3-1.2q0.7-0.1 1.3-0.3c2.1-0.7 3.5-1.7 2.5-4.7-1.8-4.9-6.2-8.9-10.6-10.6-1.7-0.6-3.4-0.9-5-0.8-1.7 0.1-3.3 0.7-4.5 1.9-1.8 1.7-2.9 4.7-2.5 9.2z"/><path class="m" d="m640.6 370.2c0 0.2-8.8 4.5-9 4.6 1.3 17.2 15.8 24 30.4 14.6q1-0.6 1.9-1.4c1.4 6.9 5.7 11.4 11 14 12 5.7 29.6 1 32.5-11.3 6.5 14.3 21.8 13.1 30.3 5.8 2.1-1.7 3.8-3.9 4.8-6.2q1-2.1 1.1-4.4c4.8 2.3 9.6 3 14 2.6 4.5-0.5 8.7-2.2 12.2-4.8 6.1-4.4 10.1-11.4 10.2-18.9-3.3-1.5-7.3-1.7-10.8-1-6.8 4.3-15.9 5.5-24.9 1.2-1.1 14.5-27.3 24.7-36.2 4.9-4.3 17.6-39 19.6-43.5-2.7-8.7 6.5-17.7 7.1-24 3z"/><path class="n" d="m746.9 507.7c0-0.6 3.5 0 8-0.2 4-0.3 9.1-1.5 9.1-1.1 0.1 4-3.4 8.2-7.9 8.3-4.6 0-9.1-3-9.2-7z"/><path class="b" d="m758.9 491.2c0.8-0.2 2.9 6.1 3.4 8.4 0.6 2.3-2.5 3.1-3 0.8-0.6-2.3-1.3-9-0.4-9.2z"/><path class="f" d="m726.5 469c-4.2-0.5-7.9 2.9-8.2 7.6-0.4 4.6 2.7 8.6 6.9 9 4.1 0.4 7.8-3 8.2-7.6 0.4-4.6-2.7-8.6-6.9-9z"/><path class="b" d="m729.8 469.5c-1.2-0.1-2.2 0.8-2.3 2-0.1 1.2 0.7 2.2 1.9 2.3 1.2 0.2 2.3-0.7 2.4-1.9 0.1-1.2-0.8-2.3-2-2.4z"/><path class="f" d="m735.8 448.3c0.5-4.9-4.6-7-8-6.9-4.1 0-15.6 4.7-17.1 6.5-7 9.3 24.2 8 25.1 0.4z"/><path class="f" d="m764.6 446.1c0.2-3.7 7.4-3.9 10.2-3.8 3.7 0.2 5.8 1.5 7.1 3.1 4.1 5.7 2.9 10.1-4.7 8.7-5.6-1-12.7-4.2-12.6-8z"/><path class="n" d="m708.2 494c8.4 0.1 15.2 5.4 15.1 11.7-0.1 6.3-7 11.4-15.5 11.2-8.4-0.1-15.2-5.3-15.1-11.7 0.1-6.3 7-11.3 15.5-11.2z"/><path class="n" d="m739.8 537.6c-0.1-0.8 3.2 0.5 7.7 0.8 3.9 0.2 9.1-0.7 9.2-0.2 0 5-2.1 9.3-8.5 9.6-5.2 0.1-8.4-5.2-8.4-10.2z"/><path class="f" d="m749.4 509.4c-0.8 0-1.4-0.5-1.4-1.3 0-0.7 0.5-1.3 1.3-1.3q0.8-0.1 1.8-0.1c3.9-0.1 8.5-0.2 12.3-2.3 0.7-0.4 0.9-0.8 1-1.4 0-1-0.4-2.5-1-4.8-0.7-2.7-1.7-6.5-2.8-9.9-0.9-3-1.7-5.7-2.3-7.2-0.2-0.7 0.1-1.5 0.8-1.7 0.7-0.3 1.4 0.1 1.7 0.7 0.6 1.6 1.5 4.4 2.4 7.5 1 3.3 2.1 7.1 2.8 10 0.6 2.4 1.1 4.1 1 5.4 0 1.7-0.7 2.8-2.3 3.7-4.3 2.5-9.4 2.6-13.5 2.7q-0.9 0-1.8 0z"/><path class="f" d="m727.2 521.3c-0.8-0.8-0.7-2.1 0.1-2.8 0.8-0.8 2.1-0.7 2.8 0.1l0.6 0.6c6.6 6.8 13.6 9.1 19.6 9.1 6 0 10.9-2.2 13.3-4.4l0.1-0.2c0.8-0.7 2.1-0.7 2.9 0.1 0.7 0.8 0.7 2.1-0.1 2.8l-0.2 0.2c-3 2.8-8.9 5.5-16 5.5-6.9 0-15-2.6-22.4-10.3z"/><path class="f" d="m773.6 467.2c-3.5-0.4-6.7 2.7-7 6.8-0.3 4.2 2.3 7.9 5.8 8.3 3.6 0.3 6.7-2.7 7-6.9 0.3-4.2-2.3-7.9-5.8-8.2z"/><path class="b" d="m776.9 467.4c-1.2-0.1-2.2 0.8-2.3 2-0.1 1.2 0.7 2.2 1.9 2.3 1.2 0.1 2.3-0.8 2.4-2 0.1-1.2-0.8-2.2-2-2.3z"/><path class="n" d="m781.2 492c6.3 0.2 11.4 5.4 11.3 11.7-0.1 6.4-5.2 11.4-11.6 11.3-6.3-0.2-11.4-5.4-11.3-11.7 0.1-6.4 5.3-11.4 11.6-11.3z"/><path class="f" d="m601.3 793.4c0.9 0.5 1.3 1.7 0.8 2.7-0.5 0.9-1.7 1.3-2.6 0.8-0.2 0-47.8-24.5-106.6-27.7-1.1-0.1-2-1-1.9-2.1 0.1-1.1 1-2 2.1-1.9 59.6 3.3 108 28.1 108.2 28.2z"/><path class="f" d="m880.9 922.9c-0.7 0.7-1.9 0.7-2.6 0-0.8-0.7-0.8-1.8-0.1-2.6 22.3-23.6 34.5-40.7 39.7-55.9 5.1-14.9 3.4-28-2.3-43.6-0.3-0.9 0.2-2 1.1-2.4 1-0.3 2.1 0.2 2.4 1.2 6 16.3 7.8 30.1 2.4 46-5.4 15.7-17.9 33.3-40.6 57.3z"/><path class="f" d="m326.2 481.6c-11.1-8.5-65.6 22.2-43.9 70.1 21.8 48 76 39.7 98.9 12.9 22.8-26.7 1.5-81.6-55-83z"/><path class="g" d="m356.5 524.9c3 25.7-1.2 59.3-6.1 67.8 24.4 27.8 73.5 71.4 71.8 28-3.6-2.1 14.1-17.8 13.2-21.9-1.8-7.5-0.6-21-1.3-50.2 0 0-53.7-36.9-77.6-23.7z"/><path class="f" d="m356.5 524.9c0.5 5.8 1.2 12 0.7 18.2-3 43.5 52.8 65.4 77.3 46.9-0.3-8.4 0.1-21.1-0.4-41.4 0 0-53.7-36.9-77.6-23.7z"/><path class="e" d="m352.7 524.3c14.4 60.5 101.2 75 120.8 46.1 24.2-35.9 22.3-114 2.9-148.6-7.8-13.9-48.9-31.4-83.3-22.4-34.4 8.9-64.9 55.5-40.4 124.9z"/><path class="g" d="m487.7 453.7c-2.2-7.6-8.2-26.2-11.3-31.9-7.8-13.9-48.9-31.4-83.3-22.4-12.1 3.1-23.6 10.9-32.6 22.7 1.8 10-8.9 62.4 8.8 66.1 33.2-2.1 27.8-25.5 32.4-26.4 26-4.9 45.9-18 49.2-31.2 3.7 3.8 1.8 23.6 36.8 23.1z"/><path class="f" d="m400.7 441c-0.9 25.8-11.4 40.2-30.9 46 1.2 10.8-6 32.5-23.6 33.4-23.3 1.5-61.8-57.2-41-102.6 20.8-45.3 91-59 131.5-31.3z"/><path class="f" d="m503.2 448.6c-37.5 4.7-43.8-12.2-54-34.1-7.8 44.6-49.5 41.5-99.5 56.3-11-45.5 34.6-91.6 77.3-91.6 36.4 0 75 18.7 76.2 69.4z"/><path class="m" d="m320 397.3c3.8-3.7 7.9-6.9 12.4-9.8 10 4.9 24.4 8.5 46 10l0.7 0.1c15.3 1 30.2-0.6 44.2-3.7q1.2-0.3 2.4-0.6h0.1l0.9-0.2 0.3-0.1 1.1-0.3 1-0.2 0.3-0.1 1-0.3 0.8-0.2h0.1l0.7-0.2q0.8-0.2 1.6-0.4c7.8-2.3 15.3-4.9 22.3-7.8 11.5 3.6 22.1 9.7 30.3 18.6q-5.1 1.3-10.6 2.6c-21.6 5-40.7 8.8-58.1 10.9h-0.2l-0.8 0.1-1 0.1-1 0.1-0.6 0.1-1.2 0.1h-0.6l-1.1 0.1-0.6 0.1-1.2 0.1h-0.5q-0.6 0.1-1.2 0.1l-0.5 0.1q-0.7 0-1.3 0.1h-0.3q-0.6 0-1.3 0.1h-0.5q-0.6 0-1.3 0.1h-0.3q-1.6 0.1-3.2 0.1h-0.1q-0.7 0-1.4 0.1h-0.2q-0.7 0-1.4 0h-0.3q-0.7 0-1.5 0h-0.1c-10.8 0.2-21-0.7-30.8-2.7-14.8-2.9-28.9-8.4-43-17.1z"/><path class="e" d="m349.1 498.3c-11.6-14.2-37.8-11.8-37.6 10 0.1 21.8 19.7 36.1 33.5 30.3 13.7-5.8 13.7-24.6 4.1-40.3z"/><path class="g" d="m341.7 513c0.3 2.1-6 2.2-6.7 4.4-1.8 5.2 4 7.2 2.7 8.5-2.3 2.2-6.8 2-11.7-4.1-10-12.3-3.6-26.2 4.6-22.3 6.9 3.2 10.3 7.5 11.1 13.5z"/><path class="f" d="m320.3 509.7c0.1 0.6 0.7 1.1 1.5 1 0.7-0.1 1.2-0.7 1.2-1.3-0.3-3.8 0.4-6.1 1.7-7.4 0.8-0.6 1.7-1 2.7-1.1 1.2-0.1 2.5 0.2 3.8 0.7 3.8 1.4 7.7 4.9 9.2 9.2 0.3 1.2-0.1 1.5-0.7 1.7q-0.5 0.2-1.1 0.3c-1.4 0.3-3 0.7-4.3 1.8q-0.3 0.3-0.5 0.6c-1.1 1.2-1.6 3.1-1.2 5 0.3 1.8 1.3 3.7 3 5.3q0.7 0.6 1.5 1.1c0.5 0.4 1.4 0.2 1.8-0.3 0.5-0.5 0.4-1.3-0.2-1.6q-0.6-0.4-1.1-0.9c-1.4-1.2-2.2-2.7-2.4-4.1-0.2-1.2 0-2.4 0.7-3.2q0.1-0.1 0.2-0.3c0.8-0.6 2-0.9 3-1.1q0.7-0.2 1.3-0.4c2.2-0.6 3.6-1.6 2.5-4.7-1.7-4.9-6.2-8.9-10.6-10.6-1.7-0.6-3.4-0.9-5-0.8-1.7 0.1-3.2 0.7-4.5 1.9-1.8 1.7-2.9 4.7-2.5 9.2z"/><path class="f" d="m527.3 806.3c0 0 9.9 13.4 32.6 35.7 22.8 22.2 53.5-19.3 53.5-19.3l-14.3-54.9c0 0-72.3 13.9-71.8 38.5z"/><path class="g" d="m438.5 596.1c0 0 31.5 24.9 39 58.3 7.4 33.5 7.4 60.5-45.7 59.5-53.2-1-97.9-42-102.4-67.6-4.4-25.6-20.3-43.5 15.9-53.2 16-4.3 37.8 13.3 55.1 14.7 22.2 1.9 38.1-11.7 38.1-11.7z"/><path class="b" d="m446.1 597.4c63.3 14.7 78.5 28 142.3 147.1-15.3 28.6-52.7 42.1-78.2 41.4z"/><path class="b" d="m349.3 592.1c10.6 25.4 19.3 43.4 74.5 77.8 11.7-26.8 12.8-53.8 10.9-79.9 9 2.3 7.7 4.7 11.6 6 10.2 3.4 21.1 7.4 36.9 14.6 19.4 44.7 47.3 103.3 47.3 137.2 0 22.6 4.4 45.4-10.9 75.6-41.9 17-153.9 14.2-232.1 3l-18.7-198.3c27.6-18.6 53.1-31.1 80.5-36z"/><path class="r" d="m531.2 745.7c10.1 49.1-12.8 62.5-12.3 97.7 3.1 24.2 43.2 127.1 51.5 156.6h-308.5c8.8-36.9 26.6-109 32.7-126.4l-19.1-174.2c43.6 89.1 199.1 97.3 255.7 46.3z"/><path class="f" d="m303.3 1000l27.1-155c0.2-1.1-0.5-2.1-1.6-2.3-1.1-0.2-2.1 0.6-2.3 1.6l-27.8 155.7c1.7 0 2.7 0 4.5 0z"/><path class="f" d="m529.5 796.9c-3.1 10.3-7 19.5-9.1 30.2-39.1 29.6-191 128.8-234.6 77.4 3.7-14 6.9-25.3 8.8-30.9l-1.9-17.5c2.9 0.7 4.8 1.3 4.8 1.3z"/><path class="f" d="m496.2 651.1c-0.4-1 0.1-2.1 1.1-2.5 0.9-0.3 2 0.2 2.4 1.1 3.7 9.8 7.3 18.4 10.7 26.3 8 19 14.5 34.3 16.3 53.2 0.5 5.3 0 13.3-1.9 23.9-1.6 8.8-4.2 19.5-8.2 32-0.3 1-1.4 1.6-2.4 1.3-1-0.3-1.5-1.4-1.2-2.4 3.9-12.4 6.5-22.9 8.1-31.6 1.9-10.2 2.3-17.9 1.8-22.9-1.7-18.3-8.1-33.3-16-52-3.4-8-7-16.7-10.7-26.4z"/><path class="e" d="m536.4 694.5c-0.6 42.9 4.9 96.3 7.9 124 2 18.4 17.8 32.4 28.4 37.7 24.4 12.1 52.4-10.3 45.4-50.3-4.1-23.1-18.9-70.3-38.2-115.9z"/><path class="f" d="m536.7 722.5c0.4 11 1.1 22.1 1.8 32.9 23.4-6.5 43.3-16.7 56.8-26.1-2.4-6.8-5-13.6-7.8-20.5-1.6-0.4-29.4-6.2-50.8 13.7z"/><path class="i" d="m530 688.8l0.7 46.8c22 6.8 55.2-2.3 65.6-12.9l-14.8-40.1z"/><path class="i" d="m609.7 632.1c3.7 5-22.9 63.4-39.7 72.7-36.6 11.6-24.8-34.3 5.5-46.1 13.2-15.6 28-34.7 34.2-26.6z"/><path class="h" d="m529.6 698.3c-11-13.7-15-36.3-14.9-53.3-1.3-5.1-8.6-50.5-2.2-52.4 5.5-1.6 6 4.3 14.3 33.3-0.9-23.5-5.3-49.9 1.7-50.3 9.1-0.5 8.3 13.1 16.9 45.1-4.4-34.7-5.2-52.1 2.3-52.1 7.2 0.1 8.4 20.6 13.5 49.8-0.1-33.4 3.2-42.8 7.6-43.1 7.3-0.6 6.6 10.6 10.8 50.1 0.8 7.5 1.8 17.4 1.7 27.7-0.1 19.9-2.6 28.5-12.6 36.5-12.3 9.7-33.1 16-39.1 8.7z"/><path class="f" d="m580.6 652.8c-0.1-0.7 0.5-1.3 1.2-1.4 0.7-0.1 1.4 0.5 1.4 1.2l0.3 2.3c0.3 3.3 0.7 7.4 0.9 11.4 0 0.8-0.5 1.4-1.3 1.4-0.7 0.1-1.3-0.5-1.4-1.2-0.2-4.1-0.6-8.1-0.9-11.4z"/><path class="f" d="m528 638.6c-0.1-0.7 0.4-1.3 1.2-1.4 0.7-0.1 1.3 0.4 1.4 1.2 0 0 0.4 3.3 1.3 6.1 0.2 0.7-0.2 1.5-0.9 1.7-0.7 0.2-1.4-0.1-1.6-0.8-1-3.2-1.4-6.7-1.4-6.8z"/><path class="f" d="m547.3 635.4c0-0.8 0.5-1.4 1.2-1.5 0.8-0.1 1.4 0.5 1.5 1.2 0 0 0.4 3.5 1.3 6.3 0.2 0.7-0.2 1.5-0.9 1.7-0.7 0.2-1.4-0.2-1.7-0.9-1-3.1-1.4-6.8-1.4-6.8z"/><path class="f" d="m563.2 632.6c-0.1-0.8 0.5-1.4 1.2-1.5 0.7-0.1 1.4 0.4 1.5 1.1 0 0 0.5 4.4 1.4 7.2 0.2 0.7-0.2 1.4-0.8 1.7-0.8 0.2-1.5-0.2-1.7-0.9-1-3.1-1.6-7.6-1.6-7.6z"/><path class="f" d="m538.5 709.4c-0.7 0-1.3-0.6-1.3-1.3 0-0.8 0.6-1.4 1.4-1.3h0.3c2.9 0 20.5 0.4 38.1-9.9 0.6-0.3 1.5-0.1 1.8 0.5 0.4 0.6 0.2 1.5-0.5 1.8-18.2 10.7-36.4 10.3-39.4 10.2z"/><path class="f" d="m440.7 798.8c0.4 13.6 0.8 29.6 0.9 46.2 0.1 17.7 0.3 36.5 0.4 55.3 0.2 36.4 0.3 74.2 0.5 99.7 1.7 0 2.3 0 4.1 0-0.2-25.5-0.4-63.4-0.6-99.7-0.1-18.8-0.3-37.7-0.4-55.3-0.1-16.8-0.5-32.7-0.9-46.3-0.8-23.6-1.8-40.1-2-41.7-7.3-58.1-16.4-83.1-16.4-83.2-0.4-1-1.5-1.5-2.5-1.2-1.1 0.4-1.6 1.6-1.3 2.6 0.1 0.1 9 24.6 16.2 82.2 0.2 1.6 1.2 18.1 2 41.4z"/><path class="e" d="m310.4 781.4l11.3 37.6-23.9 79.3c-25.4-12.2-53.5-63.1-48.7-133.4z"/><path class="f" d="m330.6 777.4l2.1 36.9c-22.7 7.7-57.7 17.3-76.9 20.9-5.6-19.9-8.5-43.7-6.7-70.3z"/><path class="b" d="m291 613.1c49.7 13.1 39.5 126.6 40.6 200.6-25 6.8-64.7 10.9-92.4 7.3-20.4-167.7 16.5-184.3 51.8-207.9z"/><path class="f" d="m313.8 678c-0.3-1 0.3-2.1 1.3-2.4 1-0.3 2 0.3 2.3 1.3 12.3 40.5 14.3 81.2 16.2 122.6q0.3 6.3 0.6 12.7c0.1 1-0.7 1.9-1.8 1.9-1 0.1-1.9-0.7-1.9-1.8q-0.4-6.3-0.6-12.6c-2-41.2-3.9-81.7-16.1-121.7z"/><path class="e" d="m316 819.8c37.7-17.9 139.4-35.1 177.5-47.9l10.7 43.6c0 0-80.8 64.3-183.4 83.5-54.9 10.3-41.4-61.8-4.8-79.2z"/><path class="f" d="m432 787.6c8-1.8 15.8-3.6 23.1-5.3 12 11.3 22.5 34 28.2 48.1-10.1 6.6-23.5 15-39.5 23.6-1.6 0.8-1.9-18-4.1-31.8-2.7-17.5-7.2-31.3-7.7-34.6z"/><path class="f" d="m502 736.2c6.8-21.5 18.2-43.1 21.9-44.2 3.7-1.2 12 16 5.1 29.6-6.8 13.6-21.6 21.1-27 14.6z"/><path class="h" d="m524 717.3c7.2-2.2 14.2-2.9 21.2-2.4 17.1 1.2 30.7 51.5 29.5 55.9-1.2 4.2-4 11.3-10.1 15.6-9.3 6.6-15.1 4.7-16.6-0.7l-8 4.7c-24.7 14.6-43.2-57.6-16-73.1z"/><path class="i" d="m574.7 770.5q0 0.2 0 0.3c-1.2 4.2-4 11.3-10.1 15.6-9.3 6.6-15.1 4.7-16.6-0.7 0 0 9.3-6.3 14.1-11.4 3.3-3.5 8.7-5.4 12.6-3.8z"/><path class="i" d="m544 788.1c0.9-20.1-9.5-52-20.3-70.4-21 6.8-33.4 27.9-37.5 51 0.2 14.6 10.7 43.4 22.1 48.1 26.9-5.4 35.6-25.6 35.7-28.7z"/><path class="h" d="m509 816.2l-48.6 34.5c-7.6-21.2-16.6-45.3-24.1-66.5l49.9-15.5c6.4 2.7 25.7 22.9 22.8 47.5z"/><path class="i" d="m509 816.2l-48.6 34.5c-2.8-7.8-6.7-21.7-9.6-28.9 9.2-2.5 46.1-12.6 57-22.2 1.3 5.2 1.9 10.8 1.2 16.6z"/><path class="f" d="m559.2 725.9c0.7 0.1 1.2 0.8 1.2 1.5-0.1 0.7-0.8 1.3-1.5 1.2 0 0-11.7-1.3-21.4 1.7-0.8 0.2-1.5-0.2-1.7-0.9-0.2-0.7 0.2-1.4 0.9-1.6 10.3-3.2 22.4-1.9 22.5-1.9z"/><path class="f" d="m567 741.1c0.7 0.1 1.2 0.8 1.1 1.5-0.1 0.7-0.7 1.2-1.5 1.1-3.2-0.4-12.8-1.7-24.3 2.8-0.7 0.2-1.5-0.1-1.8-0.8-0.2-0.7 0.1-1.5 0.8-1.7 12.2-4.7 22.3-3.4 25.6-2.9z"/><path class="f" d="m572.1 758.5c0.7 0.1 1.2 0.9 1 1.6-0.1 0.7-0.8 1.2-1.6 1-1.8-0.4-4.8-1-9.2-0.8-4.3 0.1-10 1-17.1 3.5-0.7 0.2-1.4-0.1-1.7-0.8-0.2-0.7 0.2-1.5 0.8-1.7 7.4-2.6 13.3-3.5 17.9-3.7 4.7-0.1 8 0.5 9.9 0.9z"/><path class="f" d="m561.2 773.3c0.5-0.5 1.4-0.5 1.9 0 0.5 0.6 0.5 1.4 0 1.9-2.4 2.4-5.1 4.9-8.1 7.2-2.9 2.3-6.1 4.6-9.6 6.5-0.6 0.3-1.4 0.1-1.8-0.6-0.3-0.6-0.1-1.4 0.6-1.8 3.2-1.8 6.3-3.9 9.2-6.2 2.8-2.3 5.5-4.7 7.8-7z"/><path class="f" d="m488.9 772.6c-0.6-0.5-0.7-1.3-0.2-1.9 0.4-0.5 1.3-0.6 1.8-0.2 1.6 1.2 4.6 4.4 7.2 9.1 1.8 3.1 3.4 6.9 4.4 11.2 0.1 0.7-0.3 1.4-1.1 1.6-0.7 0.2-1.4-0.3-1.6-1-0.8-4.1-2.3-7.6-4-10.5-2.4-4.3-5.2-7.2-6.5-8.3z"/><path class="f" d="m331.2 811.7c1.1-0.2 2.2 0.5 2.3 1.6 0.2 1.1-0.5 2.2-1.6 2.3-0.1 0-19.8 3.1-35.8 27.5-0.6 0.9-1.8 1.2-2.8 0.6-0.9-0.6-1.1-1.9-0.5-2.8 16.9-25.9 38.4-29.2 38.4-29.2z"/><path class="b" d="m481.5 960c-1.1 0.1-2.1-0.7-2.2-1.8-0.1-1.1 0.7-2 1.8-2.1q11.4-1.1 23.1-2.6 11.7-1.5 23.8-3.5c1-0.2 2.1 0.6 2.2 1.7 0.2 1.1-0.5 2.1-1.6 2.3q-12.1 1.9-23.9 3.4-11.9 1.5-23.2 2.6z"/><path class="b" d="m333.6 960.9c-1.1-0.1-1.9-1.1-1.8-2.2 0.1-1.1 1.1-1.9 2.2-1.8 0.1 0 22.9 2.6 59.1 3 1.1 0 2 0.9 2 2-0.1 1.1-0.9 2-2.1 2-36.5-0.4-59.3-3-59.4-3z"/><path class="b" d="m343.1 593.4c9.1-11.4 11.4-14.4 11.4-14.4 0 0 14.3 46.3 43.7 70.5 29.3 24.1 24.1 19.8 24.1 19.8 0 0-61.9-13.6-79.2-75.9z"/><path class="f" d="m341.9 594.2c0.5-1 1.7-1.5 2.7-1 1 0.4 1.5 1.6 1 2.6-3.3 7.4-5.2 15.2-5.5 23.5-0.2 8 1.1 16.6 4.5 26l36.7 0.4c1.1 0.1 2 1 1.9 2.1 0 0.4-0.1 0.8-0.4 1.2l-10.2 13.4 52.2 10.8c1.1 0.2 1.8 1.3 1.6 2.4-0.2 1.1-1.3 1.8-2.4 1.5l-55.2-11.4q-0.5-0.1-0.9-0.4c-0.9-0.7-1.1-1.9-0.4-2.8l9.8-12.8-34-0.5c-0.8 0.1-1.6-0.4-1.9-1.2-4-10.4-5.5-19.9-5.3-28.8 0.3-8.9 2.4-17.2 5.8-25z"/><path class="f" d="m444.8 597.8c-0.8-0.8-0.9-2-0.2-2.8 0.8-0.8 2-0.9 2.9-0.2 6.7 6.2 11.4 12.1 15.2 19.2 3.7 7 6.4 15 9 25.3 0.3 1-0.4 2.1-1.4 2.4q-0.4 0.1-0.7 0l-21.1-1.1 16.7 12.1c0.9 0.6 1.1 1.8 0.5 2.7q-0.3 0.4-0.7 0.6l-39.6 20.9c-1 0.6-2.2 0.2-2.7-0.8-0.6-1-0.2-2.2 0.8-2.7l36.8-19.4-19.5-14c-0.6-0.4-1-1.1-0.9-1.8 0-1.1 0.9-2 2-1.9l25.3 1.3c-2.4-8.7-4.8-15.7-8-21.7-3.6-6.7-8.1-12.3-14.4-18.1z"/><path class="s" d="m237.3 803.9c-0.7-0.3-1-1.1-0.7-1.8 0.3-0.6 1.1-0.9 1.8-0.7 3.4 1.6 28.1 2.1 52.4 0.1 16-1.3 31.8-3.8 41-7.9 0.7-0.3 1.5 0 1.8 0.7 0.3 0.7 0 1.5-0.7 1.8-9.5 4.2-25.6 6.7-41.9 8.1-24.7 2-50.1 1.3-53.7-0.3z"/><path class="b" d="m317.7 407.4l5-33.4c9-59.3 110.8-76 129.6-26.2l15.4 40.7c-27.2-17.6-91-6.4-137 28.5-2 1.6-10.2-6.2-13-9.6z"/><path class="t" d="m318.2 403.8l4.5-29.8c3.7-24.3 22.9-41.4 45.6-49.8-6.6 11.2-14.8 28.5-17.2 44.7-4.3 29.1 26.4 13.2 55.8 14-25 4.8-52.4 16.2-75.4 33.6-15.3 11.5-15.3 0.8-13.3-12.7z"/><path class="o" d="m401.7 333.3c-0.2-2.9 2-5.5 4.9-5.7 3-0.2 5.5 2 5.8 4.9l2.5 34.7c0.3 2.9-1.9 5.5-4.9 5.7-2.9 0.2-5.5-2-5.7-4.9z"/><path class="o" d="m426 344.5c3 0 5.4 2.3 5.5 5.2 0 3-2.3 5.4-5.2 5.5l-35.7 0.8c-2.9 0-5.3-2.3-5.4-5.2-0.1-3 2.3-5.4 5.2-5.5z"/><path class="f" d="m336.3 414.1c0 0.7-0.6 1.3-1.3 1.3-0.8 0-1.4-0.6-1.4-1.3 0-4.6-0.1-9.4-0.3-14.3-1.1-26.3-2.2-57.2 22.5-72.9 0.6-0.4 1.4-0.2 1.8 0.4 0.4 0.6 0.2 1.5-0.4 1.8-23.4 15-22.3 45-21.3 70.6 0.2 5.1 0.4 10 0.4 14.4z"/><path class="n" d="m444.5 518c0-0.6 3.4 0.1 7.9-0.1 3.9-0.2 9-1.3 9-1 0 4-3.5 8.1-8 8.1-4.5 0-8.9-3.1-8.9-7z"/><path class="b" d="m456.5 501.8c0.8-0.2 2.8 6.2 3.3 8.4 0.6 2.3-2.5 3-3.1 0.8-0.5-2.3-1.1-9-0.2-9.2z"/><path class="f" d="m424.9 479.5c-4.1-0.5-7.8 2.9-8.2 7.4-0.5 4.5 2.5 8.6 6.6 9 4.1 0.5 7.8-2.8 8.3-7.4 0.4-4.5-2.6-8.5-6.7-9z"/><path class="b" d="m428.1 480.1c-1.1-0.1-2.2 0.7-2.3 1.9-0.1 1.2 0.7 2.3 1.9 2.4 1.2 0.1 2.2-0.8 2.4-2 0.1-1.1-0.8-2.2-2-2.3z"/><path class="f" d="m434.3 459.2c0.6-4.7-4.4-6.9-7.8-6.9-4 0-15.5 4.4-16.9 6.3-7.1 9 23.7 8.1 24.7 0.6z"/><path class="f" d="m462.8 457.5c0.1-3.7 7.3-3.8 10-3.6 3.7 0.2 5.8 1.5 7 3.2 4 5.6 2.7 9.9-4.8 8.5-5.5-1.1-12.4-4.3-12.2-8.1z"/><path class="g" d="m406.4 504c8.4 0.2 15 5.5 14.8 11.7-0.2 6.3-7.1 11.1-15.4 10.9-8.3-0.3-14.9-5.5-14.8-11.8 0.2-6.2 7.1-11.1 15.4-10.8z"/><path class="n" d="m437.5 554.3c-0.1-0.6 3.1 0.4 7.6 0.6 3.8 0.3 8.9-0.3 9 0 0 3.5-2.2 6.4-8.4 6.5-5.2 0-8.3-3.6-8.2-7.1z"/><path class="f" d="m446.9 519.7c-0.8 0.1-1.4-0.5-1.4-1.3 0-0.7 0.6-1.3 1.3-1.3q0.9 0 1.8 0c3.8-0.1 8.4-0.1 12.2-2.2 0.6-0.4 0.9-0.8 0.9-1.4 0.1-0.9-0.3-2.4-0.8-4.6-0.7-2.8-1.7-6.5-2.6-9.8-0.9-3-1.7-5.7-2.2-7.2-0.3-0.7 0.1-1.5 0.8-1.7 0.6-0.3 1.4 0.1 1.7 0.8 0.5 1.5 1.4 4.3 2.2 7.3 1 3.4 2 7.1 2.7 9.9 0.6 2.5 0.9 4.1 0.9 5.5-0.1 1.6-0.8 2.6-2.3 3.5-4.4 2.4-9.4 2.5-13.4 2.5q-0.9 0-1.8 0z"/><path class="b" d="m460.3 528c-6.4 1.2-16.2 3.3-31-0.2-12.7-3-2.4 21.5 16 21.6 15.6 0.2 19.9-10.3 21.8-17.5 1.5-6-2.2-4.9-6.8-3.9z"/><path class="f" d="m471.3 478.4c-3.5-0.5-6.6 2.5-6.9 6.7-0.4 4.1 2.1 7.7 5.6 8.2 3.5 0.4 6.6-2.6 6.9-6.8 0.4-4.1-2.1-7.7-5.6-8.1z"/><path class="b" d="m474.6 478.6c-1.2-0.1-2.2 0.8-2.3 1.9-0.2 1.2 0.7 2.3 1.9 2.4 1.2 0.1 2.2-0.7 2.3-1.9 0.2-1.2-0.7-2.3-1.9-2.4z"/><path class="g" d="m478.5 503c6.2 0.2 11.2 5.4 11 11.7-0.1 6.2-5.3 11.1-11.6 10.9-6.2-0.2-11.1-5.4-11-11.7 0.2-6.2 5.4-11.1 11.6-10.9z"/><path class="b" d="m370.1 557.3c47.3 47.9 135.6 42.4 121.6-51.5-7.9 1.2-8.5 2.3-17.7 2.8-5.8 0.4-11.5-8.1-18.9-8.2-6.1-0.1-20.5 9.9-28.7 9.7-12.6-0.2-19.7-0.8-40-2.8 0.4 25.3-2.9 39.3-16.3 50z"/><path class="b" d="m345.8 502.6c-1.1 0.1-2.1-0.7-2.3-1.8-0.1-1.1 0.7-2.1 1.8-2.2 12.9-1.4 33.7 4.5 50.5 9.3l4.9 1.4c1.1 0.3 1.7 1.4 1.4 2.5-0.3 1.1-1.4 1.7-2.5 1.4l-4.9-1.4c-16.5-4.7-36.8-10.6-48.9-9.2z"/><path class="b" d="m349.2 527.7c-0.5-1 0-2.2 1.1-2.6 1-0.4 2.1 0.1 2.6 1.1 2.6 6.5 10.9 19.1 21 29.1 7.1 6.9 15 12.6 22.6 14 1 0.2 1.8 1.2 1.6 2.3-0.2 1.1-1.3 1.8-2.4 1.6-8.4-1.5-17-7.6-24.6-15.1-10.5-10.4-19.1-23.5-21.9-30.4z"/><path class="t" d="m394.3 524.8c-1.1-0.3-1.7-1.4-1.4-2.5 0.3-1.1 1.4-1.7 2.4-1.4 8.8 2.4 27.6 5 48.7 4.9 14.8-0.1 30.8-1.6 44.8-5.5 1.1-0.3 2.2 0.3 2.5 1.4 0.3 1.1-0.3 2.2-1.4 2.5-14.4 4-30.7 5.5-45.9 5.6-21.4 0.1-40.8-2.6-49.7-5z"/><path class="t" d="m394.3 541.9c-1.1-0.3-1.7-1.4-1.4-2.4 0.3-1.1 1.4-1.7 2.4-1.4 8.5 2.3 26.6 4.8 46.9 4.9 14.5 0 30.1-1.3 44.1-4.9 1.1-0.2 2.2 0.4 2.4 1.5 0.3 1.1-0.3 2.2-1.4 2.4-14.4 3.7-30.3 5-45.1 5-20.7-0.1-39.2-2.7-47.9-5.1z"/><path class="t" d="m389.9 559.3c-1.1-0.3-1.6-1.5-1.3-2.5 0.3-1.1 1.5-1.6 2.5-1.3 18.5 6 33.8 8.7 47.8 8.9 14 0.2 26.8-2.1 40.4-6.1 1-0.3 2.2 0.3 2.5 1.4 0.3 1-0.3 2.1-1.4 2.5-13.9 4.1-27.1 6.4-41.5 6.2-14.5-0.2-30.1-3-49-9.1z"/><path class="d" d="m1458.8 86.3c1.1 0 2 0.9 2 2 0 1.2-0.9 2-2 2h-66.5c-0.9 0-1.7-0.6-1.9-1.5l-10.7-30.5-14 63.7c-0.2 1.1-1.3 1.8-2.3 1.5-0.8-0.1-1.4-0.7-1.5-1.4l-11.3-35.2h-60.9c-1.1 0-2-0.9-2-2.1 0-1.1 0.9-2 2-2h62.3c0.9 0.1 1.7 0.6 1.9 1.4l9.5 29.7 13.9-63.3c0.2-0.7 0.6-1.3 1.3-1.5 1-0.4 2.2 0.2 2.5 1.2l12.6 36z"/><path class="d" d="m1285.2 75.8l8.8 8.8-8.8 8.8-8.8-8.8z"/><path class="d" d="m1462.8 79.4l8.9 8.8-8.9 8.9-8.8-8.9z"/><path class="d" d="m407.9 161.5c1.1 0 2 0.9 2 2 0 1.1-0.9 2-2 2h-66.5c-0.9 0-1.7-0.6-1.9-1.5l-10.7-30.5-14 63.7c-0.2 1.1-1.3 1.7-2.4 1.5-0.7-0.2-1.3-0.7-1.5-1.5l-11.3-35.2h-60.8c-1.1 0-2-0.9-2-2 0-1.1 0.9-2 2-2h62.3c0.8 0 1.6 0.6 1.9 1.4l9.5 29.7 13.9-63.4c0.1-0.6 0.6-1.2 1.3-1.4 1-0.4 2.2 0.2 2.5 1.2l12.6 36z"/><path class="d" d="m234.3 151l8.8 8.8-8.8 8.8-8.8-8.8z"/><path class="d" d="m411.9 154.6l8.9 8.8-8.9 8.9-8.8-8.9z"/><path class="d" d="m975.9 91.7l5.9-3.3 5.8-3.4v-6.7-6.8l-5.8-3.3-5.9-3.4-5.8 3.4-5.8 3.3v6.8 6.7l5.8 3.4z"/><path class="c" d="m476.2 148.8l9.1-5.3 9.1-5.2v-10.6-10.5l-9.1-5.3-9.1-5.3-9.2 5.3-9.1 5.3v10.5 10.6l9.1 5.2z"/><path fill-rule="evenodd" class="c" d="m442.6 107.5l-12.8 7.4c-1.2 0.7-2.8 0.8-4.1 0.1l-25.4-14.7c-1.4-0.7-2.4-2.1-2.4-3.7v-29.8h0.1c0-1.4 0.7-2.7 2-3.4l12.6-7.4 0.2-0.1 12.9-7.4c1.2-0.7 2.7-0.8 4 0l12.9 7.4 12.6 7.3c1.4 0.6 2.3 2 2.3 3.6v29.8c0 1.4-0.7 2.7-2 3.5zm-14.9-0.6l21.8-12.6v-25.2l-10.9-6.3-10.9-6.3-10.9 6.3-0.2 0.1-10.7 6.2v25.2z"/><path class="f" d="m1434.8 702.1c-4.8 7.1-14.4 9.1-21.5 4.4-7.2-4.7-9.2-14.4-4.4-21.5 4.7-7.2 14.3-9.1 21.4-4.4 7.2 4.7 9.2 14.3 4.5 21.5z"/><path class="h" d="m1434.8 698.3c-4.8 7.2-14.4 9.2-21.5 4.5-7.2-4.8-9.2-14.4-4.4-21.5 4.7-7.2 14.3-9.2 21.4-4.4 7.2 4.7 9.2 14.3 4.5 21.4z"/><path class="h" d="m1434.8 698.3c-4.8 7.2-14.4 9.2-21.5 4.5-7.2-4.8-9.2-14.4-4.4-21.5z"/><path class="f" d="m1408.6 683.5c-0.9-0.6-1.1-1.8-0.5-2.8 0.6-0.9 1.8-1.1 2.7-0.5l24.2 15.9c0.9 0.6 1.2 1.8 0.6 2.8-0.7 0.9-1.9 1.1-2.8 0.5z"/><path class="f" d="m1361.6 733.8c0.5-8.3 11-13 18.8-15.5 7.2-2.4 22.4-5.6 24.3 4.4 2.7 13.9-22.8 23.8-35.5 20.1-3.7-1.1-7.8-5.3-7.6-9z"/><path class="o" d="m1404 720.2c1.6 5.3-6.5 12.5-18.3 16.2-11.7 3.7-22.6 2.4-24.2-2.9-1.7-5.3 6.5-12.6 18.2-16.3 11.8-3.6 22.6-2.3 24.3 3z"/><path class="f" d="m1380.8 716.9c-0.7-0.7-1.8-0.8-2.6-0.2-0.7 0.7-0.8 1.8-0.2 2.6 0.1 0 8.3 9.4 7.3 18-0.1 1 0.6 1.9 1.6 2 1 0.1 1.9-0.6 2-1.6 1.2-10.2-8.1-20.8-8.1-20.8z"/><path class="u" d="m1389 735.3c-0.3-7.6-5.4-14.8-7.4-17.4-0.5-0.6-0.8-1-0.8-1 11.3-3.3 21.6-1.9 23.2 3.3q0.1 0.3 0.1 0.6c0.8 4.7-5.6 10.7-15.1 14.5z"/><path class="f" d="m1186.9 719.5c6.5-5.1 16.9-0.2 23.9 4.1 6.5 4 18.8 13.4 12.5 21.4-8.8 11.1-32.9-1.8-38.3-13.9-1.6-3.5-1.1-9.3 1.9-11.6z"/><path class="o" d="m1224.8 742.8c-3 4.7-13.8 3.2-24.3-3.3-10.4-6.5-16.5-15.6-13.5-20.3 2.9-4.7 13.8-3.3 24.2 3.3 10.4 6.5 16.5 15.6 13.6 20.3z"/><path class="f" d="m1212.1 723c0.2-0.9-0.5-1.9-1.5-2-1-0.2-1.9 0.5-2.1 1.5 0 0-1.8 12.4-8.9 17.3-0.8 0.6-1.1 1.7-0.5 2.5 0.6 0.8 1.7 1 2.5 0.5 8.5-5.8 10.5-19.7 10.5-19.8z"/><path class="u" d="m1203.5 741.2c5.6-5.1 7.7-13.7 8.4-16.9 0.1-0.8 0.2-1.2 0.2-1.3 9.9 6.5 15.5 15.2 12.7 19.8q-0.2 0.3-0.4 0.5c-3.1 3.7-11.8 2.7-20.9-2.1z"/><path class="f" d="m1168.6 482.4c-4.7 7.2-14.3 9.2-21.5 4.4-7.1-4.7-9.1-14.3-4.4-21.5 4.7-7.1 14.4-9.1 21.5-4.4 7.2 4.8 9.1 14.4 4.4 21.5z"/><path class="h" d="m1168.6 478.7c-4.7 7.2-14.3 9.1-21.5 4.4-7.1-4.7-9.1-14.3-4.4-21.5 4.7-7.1 14.4-9.1 21.5-4.4 7.2 4.7 9.1 14.3 4.4 21.5z"/><path class="h" d="m1168.6 478.7c-4.7 7.2-14.3 9.1-21.5 4.4-7.1-4.7-9.1-14.3-4.4-21.5z"/><path class="f" d="m1142.5 463.9c-0.9-0.6-1.2-1.9-0.6-2.8 0.6-0.9 1.9-1.2 2.8-0.6l24.2 16c0.9 0.6 1.1 1.8 0.5 2.7-0.6 0.9-1.8 1.2-2.7 0.6z"/><path class="f" d="m1169.3 460.9c-0.5-8.3 9.3-14.2 16.8-17.6 6.9-3.1 21.6-8.1 24.7 1.6 4.3 13.5-19.9 26.3-32.9 24.1-3.8-0.7-8.4-4.4-8.6-8.1z"/><path class="o" d="m1209.8 442.5c2.2 5.1-5 13.2-16.3 18.2-11.2 5-22.1 5-24.4-0.1-2.3-5.1 5-13.2 16.3-18.2 11.2-5 22.1-5 24.4 0.1z"/><path class="f" d="m1186.4 441.9c-0.8-0.6-1.9-0.6-2.6 0.1-0.7 0.8-0.6 1.9 0.1 2.6 0 0 9.3 8.4 9.3 17.1 0 1 0.9 1.8 1.9 1.8 1 0 1.8-0.8 1.8-1.8-0.1-10.3-10.5-19.7-10.5-19.8z"/><path class="u" d="m1196.6 459.2c-1.1-7.4-7.1-14.1-9.3-16.4-0.6-0.5-0.9-0.9-0.9-0.9 10.8-4.5 21.2-4.3 23.4 0.6q0.1 0.3 0.2 0.6c1.3 4.6-4.3 11.3-13.4 16.1z"/></svg>